<mxfile host="app.diagrams.net" agent="Mozilla/5.0 (Windows NT 10.0; Win64; x64) AppleWebKit/537.36 (KHTML, like Gecko) Chrome/127.0.0.0 Safari/537.36" version="24.7.7">
  <diagram id="C5RBs43oDa-KdzZeNtuy" name="Page-1">
    <mxGraphModel dx="3704" dy="2357" grid="1" gridSize="10" guides="1" tooltips="1" connect="1" arrows="1" fold="1" page="1" pageScale="1" pageWidth="1169" pageHeight="827" math="0" shadow="0">
      <root>
        <mxCell id="WIyWlLk6GJQsqaUBKTNV-0" />
        <mxCell id="WIyWlLk6GJQsqaUBKTNV-1" parent="WIyWlLk6GJQsqaUBKTNV-0" />
        <mxCell id="Q9fAkQJaOk25oEMOpLRy-168" value="Utilisateur" style="swimlane;fontStyle=1;childLayout=stackLayout;horizontal=1;startSize=26;horizontalStack=0;resizeParent=1;resizeParentMax=0;resizeLast=0;collapsible=1;marginBottom=0;" parent="WIyWlLk6GJQsqaUBKTNV-1" vertex="1">
          <mxGeometry x="-1670" y="880" width="160" height="216" as="geometry" />
        </mxCell>
        <mxCell id="Q9fAkQJaOk25oEMOpLRy-169" value="-id: int" style="text;strokeColor=none;fillColor=none;align=left;verticalAlign=top;spacingLeft=4;spacingRight=4;overflow=hidden;rotatable=0;points=[[0,0.5],[1,0.5]];portConstraint=eastwest;" parent="Q9fAkQJaOk25oEMOpLRy-168" vertex="1">
          <mxGeometry y="26" width="160" height="26" as="geometry" />
        </mxCell>
        <mxCell id="Q9fAkQJaOk25oEMOpLRy-170" value="-nom: string" style="text;strokeColor=none;fillColor=none;align=left;verticalAlign=top;spacingLeft=4;spacingRight=4;overflow=hidden;rotatable=0;points=[[0,0.5],[1,0.5]];portConstraint=eastwest;" parent="Q9fAkQJaOk25oEMOpLRy-168" vertex="1">
          <mxGeometry y="52" width="160" height="26" as="geometry" />
        </mxCell>
        <mxCell id="Q9fAkQJaOk25oEMOpLRy-171" value="-email: string" style="text;strokeColor=none;fillColor=none;align=left;verticalAlign=top;spacingLeft=4;spacingRight=4;overflow=hidden;rotatable=0;points=[[0,0.5],[1,0.5]];portConstraint=eastwest;" parent="Q9fAkQJaOk25oEMOpLRy-168" vertex="1">
          <mxGeometry y="78" width="160" height="26" as="geometry" />
        </mxCell>
        <mxCell id="Q9fAkQJaOk25oEMOpLRy-172" value="-mot_de_passe: string" style="text;strokeColor=none;fillColor=none;align=left;verticalAlign=top;spacingLeft=4;spacingRight=4;overflow=hidden;rotatable=0;points=[[0,0.5],[1,0.5]];portConstraint=eastwest;" parent="Q9fAkQJaOk25oEMOpLRy-168" vertex="1">
          <mxGeometry y="104" width="160" height="26" as="geometry" />
        </mxCell>
        <mxCell id="Q9fAkQJaOk25oEMOpLRy-173" value="-type: string" style="text;strokeColor=none;fillColor=none;align=left;verticalAlign=top;spacingLeft=4;spacingRight=4;overflow=hidden;rotatable=0;points=[[0,0.5],[1,0.5]];portConstraint=eastwest;" parent="Q9fAkQJaOk25oEMOpLRy-168" vertex="1">
          <mxGeometry y="130" width="160" height="26" as="geometry" />
        </mxCell>
        <mxCell id="Q9fAkQJaOk25oEMOpLRy-174" value="" style="line;strokeWidth=1;fillColor=none;align=left;verticalAlign=middle;spacingTop=-1;spacingLeft=3;spacingRight=3;rotatable=0;labelPosition=right;points=[];portConstraint=eastwest;" parent="Q9fAkQJaOk25oEMOpLRy-168" vertex="1">
          <mxGeometry y="156" width="160" height="8" as="geometry" />
        </mxCell>
        <mxCell id="Q9fAkQJaOk25oEMOpLRy-175" value="+inscrire(): void" style="text;strokeColor=none;fillColor=none;align=left;verticalAlign=top;spacingLeft=4;spacingRight=4;overflow=hidden;rotatable=0;points=[[0,0.5],[1,0.5]];portConstraint=eastwest;" parent="Q9fAkQJaOk25oEMOpLRy-168" vertex="1">
          <mxGeometry y="164" width="160" height="26" as="geometry" />
        </mxCell>
        <mxCell id="Q9fAkQJaOk25oEMOpLRy-176" value="+connecter(): void" style="text;strokeColor=none;fillColor=none;align=left;verticalAlign=top;spacingLeft=4;spacingRight=4;overflow=hidden;rotatable=0;points=[[0,0.5],[1,0.5]];portConstraint=eastwest;" parent="Q9fAkQJaOk25oEMOpLRy-168" vertex="1">
          <mxGeometry y="190" width="160" height="26" as="geometry" />
        </mxCell>
        <mxCell id="Q9fAkQJaOk25oEMOpLRy-177" value="trh" style="swimlane;fontStyle=1;childLayout=stackLayout;horizontal=1;startSize=26;horizontalStack=0;resizeParent=1;resizeParentMax=0;resizeLast=0;collapsible=1;marginBottom=0;" parent="WIyWlLk6GJQsqaUBKTNV-1" vertex="1">
          <mxGeometry x="-1520" y="-910" width="260" height="138" as="geometry" />
        </mxCell>
        <mxCell id="Q9fAkQJaOk25oEMOpLRy-178" value="-historique_des_demandes: List&lt;Demande&gt;" style="text;strokeColor=none;fillColor=none;align=left;verticalAlign=top;spacingLeft=4;spacingRight=4;overflow=hidden;rotatable=0;points=[[0,0.5],[1,0.5]];portConstraint=eastwest;" parent="Q9fAkQJaOk25oEMOpLRy-177" vertex="1">
          <mxGeometry y="26" width="260" height="26" as="geometry" />
        </mxCell>
        <mxCell id="Q9fAkQJaOk25oEMOpLRy-179" value="" style="line;strokeWidth=1;fillColor=none;align=left;verticalAlign=middle;spacingTop=-1;spacingLeft=3;spacingRight=3;rotatable=0;labelPosition=right;points=[];portConstraint=eastwest;" parent="Q9fAkQJaOk25oEMOpLRy-177" vertex="1">
          <mxGeometry y="52" width="260" height="8" as="geometry" />
        </mxCell>
        <mxCell id="Q9fAkQJaOk25oEMOpLRy-180" value="+creer_demande(): void" style="text;strokeColor=none;fillColor=none;align=left;verticalAlign=top;spacingLeft=4;spacingRight=4;overflow=hidden;rotatable=0;points=[[0,0.5],[1,0.5]];portConstraint=eastwest;" parent="Q9fAkQJaOk25oEMOpLRy-177" vertex="1">
          <mxGeometry y="60" width="260" height="26" as="geometry" />
        </mxCell>
        <mxCell id="Q9fAkQJaOk25oEMOpLRy-181" value="+noter_prestataire(): void" style="text;strokeColor=none;fillColor=none;align=left;verticalAlign=top;spacingLeft=4;spacingRight=4;overflow=hidden;rotatable=0;points=[[0,0.5],[1,0.5]];portConstraint=eastwest;" parent="Q9fAkQJaOk25oEMOpLRy-177" vertex="1">
          <mxGeometry y="86" width="260" height="26" as="geometry" />
        </mxCell>
        <mxCell id="Q9fAkQJaOk25oEMOpLRy-182" value="+valider_tache(): void" style="text;strokeColor=none;fillColor=none;align=left;verticalAlign=top;spacingLeft=4;spacingRight=4;overflow=hidden;rotatable=0;points=[[0,0.5],[1,0.5]];portConstraint=eastwest;" parent="Q9fAkQJaOk25oEMOpLRy-177" vertex="1">
          <mxGeometry y="112" width="260" height="26" as="geometry" />
        </mxCell>
        <mxCell id="Q9fAkQJaOk25oEMOpLRy-183" value="Prestataire" style="swimlane;fontStyle=1;childLayout=stackLayout;horizontal=1;startSize=26;horizontalStack=0;resizeParent=1;resizeParentMax=0;resizeLast=0;collapsible=1;marginBottom=0;" parent="WIyWlLk6GJQsqaUBKTNV-1" vertex="1">
          <mxGeometry x="-1250" y="-990" width="240" height="112" as="geometry" />
        </mxCell>
        <mxCell id="Q9fAkQJaOk25oEMOpLRy-184" value="-historique_des_taches: List&lt;Demande&gt;" style="text;strokeColor=none;fillColor=none;align=left;verticalAlign=top;spacingLeft=4;spacingRight=4;overflow=hidden;rotatable=0;points=[[0,0.5],[1,0.5]];portConstraint=eastwest;" parent="Q9fAkQJaOk25oEMOpLRy-183" vertex="1">
          <mxGeometry y="26" width="240" height="26" as="geometry" />
        </mxCell>
        <mxCell id="Q9fAkQJaOk25oEMOpLRy-185" value="" style="line;strokeWidth=1;fillColor=none;align=left;verticalAlign=middle;spacingTop=-1;spacingLeft=3;spacingRight=3;rotatable=0;labelPosition=right;points=[];portConstraint=eastwest;" parent="Q9fAkQJaOk25oEMOpLRy-183" vertex="1">
          <mxGeometry y="52" width="240" height="8" as="geometry" />
        </mxCell>
        <mxCell id="Q9fAkQJaOk25oEMOpLRy-186" value="+repondre_demande(): void" style="text;strokeColor=none;fillColor=none;align=left;verticalAlign=top;spacingLeft=4;spacingRight=4;overflow=hidden;rotatable=0;points=[[0,0.5],[1,0.5]];portConstraint=eastwest;" parent="Q9fAkQJaOk25oEMOpLRy-183" vertex="1">
          <mxGeometry y="60" width="240" height="26" as="geometry" />
        </mxCell>
        <mxCell id="Q9fAkQJaOk25oEMOpLRy-187" value="+noter_client(): void" style="text;strokeColor=none;fillColor=none;align=left;verticalAlign=top;spacingLeft=4;spacingRight=4;overflow=hidden;rotatable=0;points=[[0,0.5],[1,0.5]];portConstraint=eastwest;" parent="Q9fAkQJaOk25oEMOpLRy-183" vertex="1">
          <mxGeometry y="86" width="240" height="26" as="geometry" />
        </mxCell>
        <mxCell id="Q9fAkQJaOk25oEMOpLRy-188" value="Agence" style="swimlane;fontStyle=1;childLayout=stackLayout;horizontal=1;startSize=26;horizontalStack=0;resizeParent=1;resizeParentMax=0;resizeLast=0;collapsible=1;marginBottom=0;" parent="WIyWlLk6GJQsqaUBKTNV-1" vertex="1">
          <mxGeometry x="-1030" y="-1030" width="230" height="268" as="geometry" />
        </mxCell>
        <mxCell id="Q9fAkQJaOk25oEMOpLRy-189" value="-liste_prestataires: List&lt;Prestataire&gt;" style="text;strokeColor=none;fillColor=none;align=left;verticalAlign=top;spacingLeft=4;spacingRight=4;overflow=hidden;rotatable=0;points=[[0,0.5],[1,0.5]];portConstraint=eastwest;" parent="Q9fAkQJaOk25oEMOpLRy-188" vertex="1">
          <mxGeometry y="26" width="230" height="26" as="geometry" />
        </mxCell>
        <mxCell id="Q9fAkQJaOk25oEMOpLRy-190" value="" style="line;strokeWidth=1;fillColor=none;align=left;verticalAlign=middle;spacingTop=-1;spacingLeft=3;spacingRight=3;rotatable=0;labelPosition=right;points=[];portConstraint=eastwest;" parent="Q9fAkQJaOk25oEMOpLRy-188" vertex="1">
          <mxGeometry y="52" width="230" height="8" as="geometry" />
        </mxCell>
        <mxCell id="Q9fAkQJaOk25oEMOpLRy-191" value="+gerer_prestataires(): void" style="text;strokeColor=none;fillColor=none;align=left;verticalAlign=top;spacingLeft=4;spacingRight=4;overflow=hidden;rotatable=0;points=[[0,0.5],[1,0.5]];portConstraint=eastwest;" parent="Q9fAkQJaOk25oEMOpLRy-188" vertex="1">
          <mxGeometry y="60" width="230" height="26" as="geometry" />
        </mxCell>
        <mxCell id="Q9fAkQJaOk25oEMOpLRy-192" value="+ajouter_prestataire(): void" style="text;strokeColor=none;fillColor=none;align=left;verticalAlign=top;spacingLeft=4;spacingRight=4;overflow=hidden;rotatable=0;points=[[0,0.5],[1,0.5]];portConstraint=eastwest;" parent="Q9fAkQJaOk25oEMOpLRy-188" vertex="1">
          <mxGeometry y="86" width="230" height="26" as="geometry" />
        </mxCell>
        <mxCell id="Q9fAkQJaOk25oEMOpLRy-193" value="+supprimer_prestataire(): void" style="text;strokeColor=none;fillColor=none;align=left;verticalAlign=top;spacingLeft=4;spacingRight=4;overflow=hidden;rotatable=0;points=[[0,0.5],[1,0.5]];portConstraint=eastwest;" parent="Q9fAkQJaOk25oEMOpLRy-188" vertex="1">
          <mxGeometry y="112" width="230" height="26" as="geometry" />
        </mxCell>
        <mxCell id="Q9fAkQJaOk25oEMOpLRy-194" value="+evaluer_prestataire(): void" style="text;strokeColor=none;fillColor=none;align=left;verticalAlign=top;spacingLeft=4;spacingRight=4;overflow=hidden;rotatable=0;points=[[0,0.5],[1,0.5]];portConstraint=eastwest;" parent="Q9fAkQJaOk25oEMOpLRy-188" vertex="1">
          <mxGeometry y="138" width="230" height="26" as="geometry" />
        </mxCell>
        <mxCell id="Q9fAkQJaOk25oEMOpLRy-195" value="+approuver_rejeter_demandes(): void" style="text;strokeColor=none;fillColor=none;align=left;verticalAlign=top;spacingLeft=4;spacingRight=4;overflow=hidden;rotatable=0;points=[[0,0.5],[1,0.5]];portConstraint=eastwest;" parent="Q9fAkQJaOk25oEMOpLRy-188" vertex="1">
          <mxGeometry y="164" width="230" height="26" as="geometry" />
        </mxCell>
        <mxCell id="Q9fAkQJaOk25oEMOpLRy-196" value="+reporting_activite(): void" style="text;strokeColor=none;fillColor=none;align=left;verticalAlign=top;spacingLeft=4;spacingRight=4;overflow=hidden;rotatable=0;points=[[0,0.5],[1,0.5]];portConstraint=eastwest;" parent="Q9fAkQJaOk25oEMOpLRy-188" vertex="1">
          <mxGeometry y="190" width="230" height="26" as="geometry" />
        </mxCell>
        <mxCell id="Q9fAkQJaOk25oEMOpLRy-197" value="+support_client(): void" style="text;strokeColor=none;fillColor=none;align=left;verticalAlign=top;spacingLeft=4;spacingRight=4;overflow=hidden;rotatable=0;points=[[0,0.5],[1,0.5]];portConstraint=eastwest;" parent="Q9fAkQJaOk25oEMOpLRy-188" vertex="1">
          <mxGeometry y="216" width="230" height="26" as="geometry" />
        </mxCell>
        <mxCell id="Q9fAkQJaOk25oEMOpLRy-198" value="+gestion_plannings(): void" style="text;strokeColor=none;fillColor=none;align=left;verticalAlign=top;spacingLeft=4;spacingRight=4;overflow=hidden;rotatable=0;points=[[0,0.5],[1,0.5]];portConstraint=eastwest;" parent="Q9fAkQJaOk25oEMOpLRy-188" vertex="1">
          <mxGeometry y="242" width="230" height="26" as="geometry" />
        </mxCell>
        <mxCell id="Q9fAkQJaOk25oEMOpLRy-199" value="Administrateur" style="swimlane;fontStyle=1;childLayout=stackLayout;horizontal=1;startSize=26;horizontalStack=0;resizeParent=1;resizeParentMax=0;resizeLast=0;collapsible=1;marginBottom=0;" parent="WIyWlLk6GJQsqaUBKTNV-1" vertex="1">
          <mxGeometry x="-720" y="-1050" width="230" height="320" as="geometry" />
        </mxCell>
        <mxCell id="Q9fAkQJaOk25oEMOpLRy-200" value="-id: int" style="text;strokeColor=none;fillColor=none;align=left;verticalAlign=top;spacingLeft=4;spacingRight=4;overflow=hidden;rotatable=0;points=[[0,0.5],[1,0.5]];portConstraint=eastwest;" parent="Q9fAkQJaOk25oEMOpLRy-199" vertex="1">
          <mxGeometry y="26" width="230" height="26" as="geometry" />
        </mxCell>
        <mxCell id="Q9fAkQJaOk25oEMOpLRy-201" value="-nom: string" style="text;strokeColor=none;fillColor=none;align=left;verticalAlign=top;spacingLeft=4;spacingRight=4;overflow=hidden;rotatable=0;points=[[0,0.5],[1,0.5]];portConstraint=eastwest;" parent="Q9fAkQJaOk25oEMOpLRy-199" vertex="1">
          <mxGeometry y="52" width="230" height="26" as="geometry" />
        </mxCell>
        <mxCell id="Q9fAkQJaOk25oEMOpLRy-202" value="-email: string" style="text;strokeColor=none;fillColor=none;align=left;verticalAlign=top;spacingLeft=4;spacingRight=4;overflow=hidden;rotatable=0;points=[[0,0.5],[1,0.5]];portConstraint=eastwest;" parent="Q9fAkQJaOk25oEMOpLRy-199" vertex="1">
          <mxGeometry y="78" width="230" height="26" as="geometry" />
        </mxCell>
        <mxCell id="Q9fAkQJaOk25oEMOpLRy-203" value="-mot_de_passe: string" style="text;strokeColor=none;fillColor=none;align=left;verticalAlign=top;spacingLeft=4;spacingRight=4;overflow=hidden;rotatable=0;points=[[0,0.5],[1,0.5]];portConstraint=eastwest;" parent="Q9fAkQJaOk25oEMOpLRy-199" vertex="1">
          <mxGeometry y="104" width="230" height="26" as="geometry" />
        </mxCell>
        <mxCell id="Q9fAkQJaOk25oEMOpLRy-204" value="" style="line;strokeWidth=1;fillColor=none;align=left;verticalAlign=middle;spacingTop=-1;spacingLeft=3;spacingRight=3;rotatable=0;labelPosition=right;points=[];portConstraint=eastwest;" parent="Q9fAkQJaOk25oEMOpLRy-199" vertex="1">
          <mxGeometry y="130" width="230" height="8" as="geometry" />
        </mxCell>
        <mxCell id="Q9fAkQJaOk25oEMOpLRy-205" value="+authentifier(): void" style="text;strokeColor=none;fillColor=none;align=left;verticalAlign=top;spacingLeft=4;spacingRight=4;overflow=hidden;rotatable=0;points=[[0,0.5],[1,0.5]];portConstraint=eastwest;" parent="Q9fAkQJaOk25oEMOpLRy-199" vertex="1">
          <mxGeometry y="138" width="230" height="26" as="geometry" />
        </mxCell>
        <mxCell id="Q9fAkQJaOk25oEMOpLRy-206" value="+gestion_comptes_utilisateurs(): void" style="text;strokeColor=none;fillColor=none;align=left;verticalAlign=top;spacingLeft=4;spacingRight=4;overflow=hidden;rotatable=0;points=[[0,0.5],[1,0.5]];portConstraint=eastwest;" parent="Q9fAkQJaOk25oEMOpLRy-199" vertex="1">
          <mxGeometry y="164" width="230" height="26" as="geometry" />
        </mxCell>
        <mxCell id="Q9fAkQJaOk25oEMOpLRy-207" value="+suppression_compte(): void" style="text;strokeColor=none;fillColor=none;align=left;verticalAlign=top;spacingLeft=4;spacingRight=4;overflow=hidden;rotatable=0;points=[[0,0.5],[1,0.5]];portConstraint=eastwest;" parent="Q9fAkQJaOk25oEMOpLRy-199" vertex="1">
          <mxGeometry y="190" width="230" height="26" as="geometry" />
        </mxCell>
        <mxCell id="Q9fAkQJaOk25oEMOpLRy-208" value="+gestion_taches(): void" style="text;strokeColor=none;fillColor=none;align=left;verticalAlign=top;spacingLeft=4;spacingRight=4;overflow=hidden;rotatable=0;points=[[0,0.5],[1,0.5]];portConstraint=eastwest;" parent="Q9fAkQJaOk25oEMOpLRy-199" vertex="1">
          <mxGeometry y="216" width="230" height="26" as="geometry" />
        </mxCell>
        <mxCell id="Q9fAkQJaOk25oEMOpLRy-209" value="+gestion_feedbacks(): void" style="text;strokeColor=none;fillColor=none;align=left;verticalAlign=top;spacingLeft=4;spacingRight=4;overflow=hidden;rotatable=0;points=[[0,0.5],[1,0.5]];portConstraint=eastwest;" parent="Q9fAkQJaOk25oEMOpLRy-199" vertex="1">
          <mxGeometry y="242" width="230" height="26" as="geometry" />
        </mxCell>
        <mxCell id="Q9fAkQJaOk25oEMOpLRy-210" value="+gestion_paiements(): void" style="text;strokeColor=none;fillColor=none;align=left;verticalAlign=top;spacingLeft=4;spacingRight=4;overflow=hidden;rotatable=0;points=[[0,0.5],[1,0.5]];portConstraint=eastwest;" parent="Q9fAkQJaOk25oEMOpLRy-199" vertex="1">
          <mxGeometry y="268" width="230" height="26" as="geometry" />
        </mxCell>
        <mxCell id="Q9fAkQJaOk25oEMOpLRy-211" value="+reporting_statistiques(): void" style="text;strokeColor=none;fillColor=none;align=left;verticalAlign=top;spacingLeft=4;spacingRight=4;overflow=hidden;rotatable=0;points=[[0,0.5],[1,0.5]];portConstraint=eastwest;" parent="Q9fAkQJaOk25oEMOpLRy-199" vertex="1">
          <mxGeometry y="294" width="230" height="26" as="geometry" />
        </mxCell>
        <mxCell id="Q9fAkQJaOk25oEMOpLRy-212" value="Demande" style="swimlane;fontStyle=1;childLayout=stackLayout;horizontal=1;startSize=26;horizontalStack=0;resizeParent=1;resizeParentMax=0;resizeLast=0;collapsible=1;marginBottom=0;" parent="WIyWlLk6GJQsqaUBKTNV-1" vertex="1">
          <mxGeometry x="-1471" y="862" width="180" height="268" as="geometry" />
        </mxCell>
        <mxCell id="Q9fAkQJaOk25oEMOpLRy-213" value="-id: int" style="text;strokeColor=none;fillColor=none;align=left;verticalAlign=top;spacingLeft=4;spacingRight=4;overflow=hidden;rotatable=0;points=[[0,0.5],[1,0.5]];portConstraint=eastwest;" parent="Q9fAkQJaOk25oEMOpLRy-212" vertex="1">
          <mxGeometry y="26" width="180" height="26" as="geometry" />
        </mxCell>
        <mxCell id="Q9fAkQJaOk25oEMOpLRy-214" value="-description: string" style="text;strokeColor=none;fillColor=none;align=left;verticalAlign=top;spacingLeft=4;spacingRight=4;overflow=hidden;rotatable=0;points=[[0,0.5],[1,0.5]];portConstraint=eastwest;" parent="Q9fAkQJaOk25oEMOpLRy-212" vertex="1">
          <mxGeometry y="52" width="180" height="26" as="geometry" />
        </mxCell>
        <mxCell id="Q9fAkQJaOk25oEMOpLRy-215" value="-date_creation: Date" style="text;strokeColor=none;fillColor=none;align=left;verticalAlign=top;spacingLeft=4;spacingRight=4;overflow=hidden;rotatable=0;points=[[0,0.5],[1,0.5]];portConstraint=eastwest;" parent="Q9fAkQJaOk25oEMOpLRy-212" vertex="1">
          <mxGeometry y="78" width="180" height="26" as="geometry" />
        </mxCell>
        <mxCell id="Q9fAkQJaOk25oEMOpLRy-216" value="-status: string" style="text;strokeColor=none;fillColor=none;align=left;verticalAlign=top;spacingLeft=4;spacingRight=4;overflow=hidden;rotatable=0;points=[[0,0.5],[1,0.5]];portConstraint=eastwest;" parent="Q9fAkQJaOk25oEMOpLRy-212" vertex="1">
          <mxGeometry y="104" width="180" height="26" as="geometry" />
        </mxCell>
        <mxCell id="Q9fAkQJaOk25oEMOpLRy-217" value="-client_id: int" style="text;strokeColor=none;fillColor=none;align=left;verticalAlign=top;spacingLeft=4;spacingRight=4;overflow=hidden;rotatable=0;points=[[0,0.5],[1,0.5]];portConstraint=eastwest;" parent="Q9fAkQJaOk25oEMOpLRy-212" vertex="1">
          <mxGeometry y="130" width="180" height="26" as="geometry" />
        </mxCell>
        <mxCell id="Q9fAkQJaOk25oEMOpLRy-218" value="-prestataire_id: int" style="text;strokeColor=none;fillColor=none;align=left;verticalAlign=top;spacingLeft=4;spacingRight=4;overflow=hidden;rotatable=0;points=[[0,0.5],[1,0.5]];portConstraint=eastwest;" parent="Q9fAkQJaOk25oEMOpLRy-212" vertex="1">
          <mxGeometry y="156" width="180" height="26" as="geometry" />
        </mxCell>
        <mxCell id="Q9fAkQJaOk25oEMOpLRy-219" value="-agence_id: int" style="text;strokeColor=none;fillColor=none;align=left;verticalAlign=top;spacingLeft=4;spacingRight=4;overflow=hidden;rotatable=0;points=[[0,0.5],[1,0.5]];portConstraint=eastwest;" parent="Q9fAkQJaOk25oEMOpLRy-212" vertex="1">
          <mxGeometry y="182" width="180" height="26" as="geometry" />
        </mxCell>
        <mxCell id="Q9fAkQJaOk25oEMOpLRy-220" value="" style="line;strokeWidth=1;fillColor=none;align=left;verticalAlign=middle;spacingTop=-1;spacingLeft=3;spacingRight=3;rotatable=0;labelPosition=right;points=[];portConstraint=eastwest;" parent="Q9fAkQJaOk25oEMOpLRy-212" vertex="1">
          <mxGeometry y="208" width="180" height="8" as="geometry" />
        </mxCell>
        <mxCell id="Q9fAkQJaOk25oEMOpLRy-221" value="+creer(): void" style="text;strokeColor=none;fillColor=none;align=left;verticalAlign=top;spacingLeft=4;spacingRight=4;overflow=hidden;rotatable=0;points=[[0,0.5],[1,0.5]];portConstraint=eastwest;" parent="Q9fAkQJaOk25oEMOpLRy-212" vertex="1">
          <mxGeometry y="216" width="180" height="26" as="geometry" />
        </mxCell>
        <mxCell id="Q9fAkQJaOk25oEMOpLRy-222" value="+mettre_a_jour_status(): void" style="text;strokeColor=none;fillColor=none;align=left;verticalAlign=top;spacingLeft=4;spacingRight=4;overflow=hidden;rotatable=0;points=[[0,0.5],[1,0.5]];portConstraint=eastwest;" parent="Q9fAkQJaOk25oEMOpLRy-212" vertex="1">
          <mxGeometry y="242" width="180" height="26" as="geometry" />
        </mxCell>
        <mxCell id="Q9fAkQJaOk25oEMOpLRy-223" value="Paiement" style="swimlane;fontStyle=1;childLayout=stackLayout;horizontal=1;startSize=26;horizontalStack=0;resizeParent=1;resizeParentMax=0;resizeLast=0;collapsible=1;marginBottom=0;" parent="WIyWlLk6GJQsqaUBKTNV-1" vertex="1">
          <mxGeometry x="-1270" y="850" width="160" height="190" as="geometry" />
        </mxCell>
        <mxCell id="Q9fAkQJaOk25oEMOpLRy-224" value="-id: int" style="text;strokeColor=none;fillColor=none;align=left;verticalAlign=top;spacingLeft=4;spacingRight=4;overflow=hidden;rotatable=0;points=[[0,0.5],[1,0.5]];portConstraint=eastwest;" parent="Q9fAkQJaOk25oEMOpLRy-223" vertex="1">
          <mxGeometry y="26" width="160" height="26" as="geometry" />
        </mxCell>
        <mxCell id="Q9fAkQJaOk25oEMOpLRy-225" value="-montant: double" style="text;strokeColor=none;fillColor=none;align=left;verticalAlign=top;spacingLeft=4;spacingRight=4;overflow=hidden;rotatable=0;points=[[0,0.5],[1,0.5]];portConstraint=eastwest;" parent="Q9fAkQJaOk25oEMOpLRy-223" vertex="1">
          <mxGeometry y="52" width="160" height="26" as="geometry" />
        </mxCell>
        <mxCell id="Q9fAkQJaOk25oEMOpLRy-226" value="-date: Date" style="text;strokeColor=none;fillColor=none;align=left;verticalAlign=top;spacingLeft=4;spacingRight=4;overflow=hidden;rotatable=0;points=[[0,0.5],[1,0.5]];portConstraint=eastwest;" parent="Q9fAkQJaOk25oEMOpLRy-223" vertex="1">
          <mxGeometry y="78" width="160" height="26" as="geometry" />
        </mxCell>
        <mxCell id="Q9fAkQJaOk25oEMOpLRy-227" value="-demande_id: int" style="text;strokeColor=none;fillColor=none;align=left;verticalAlign=top;spacingLeft=4;spacingRight=4;overflow=hidden;rotatable=0;points=[[0,0.5],[1,0.5]];portConstraint=eastwest;" parent="Q9fAkQJaOk25oEMOpLRy-223" vertex="1">
          <mxGeometry y="104" width="160" height="26" as="geometry" />
        </mxCell>
        <mxCell id="Q9fAkQJaOk25oEMOpLRy-228" value="" style="line;strokeWidth=1;fillColor=none;align=left;verticalAlign=middle;spacingTop=-1;spacingLeft=3;spacingRight=3;rotatable=0;labelPosition=right;points=[];portConstraint=eastwest;" parent="Q9fAkQJaOk25oEMOpLRy-223" vertex="1">
          <mxGeometry y="130" width="160" height="8" as="geometry" />
        </mxCell>
        <mxCell id="Q9fAkQJaOk25oEMOpLRy-229" value="+effectuer(): void" style="text;strokeColor=none;fillColor=none;align=left;verticalAlign=top;spacingLeft=4;spacingRight=4;overflow=hidden;rotatable=0;points=[[0,0.5],[1,0.5]];portConstraint=eastwest;" parent="Q9fAkQJaOk25oEMOpLRy-223" vertex="1">
          <mxGeometry y="138" width="160" height="26" as="geometry" />
        </mxCell>
        <mxCell id="Q9fAkQJaOk25oEMOpLRy-230" value="+rembourser(): void" style="text;strokeColor=none;fillColor=none;align=left;verticalAlign=top;spacingLeft=4;spacingRight=4;overflow=hidden;rotatable=0;points=[[0,0.5],[1,0.5]];portConstraint=eastwest;" parent="Q9fAkQJaOk25oEMOpLRy-223" vertex="1">
          <mxGeometry y="164" width="160" height="26" as="geometry" />
        </mxCell>
        <mxCell id="Q9fAkQJaOk25oEMOpLRy-231" value="Evaluation" style="swimlane;fontStyle=1;childLayout=stackLayout;horizontal=1;startSize=26;horizontalStack=0;resizeParent=1;resizeParentMax=0;resizeLast=0;collapsible=1;marginBottom=0;" parent="WIyWlLk6GJQsqaUBKTNV-1" vertex="1">
          <mxGeometry x="-1070" y="862" width="160" height="216" as="geometry" />
        </mxCell>
        <mxCell id="Q9fAkQJaOk25oEMOpLRy-232" value="-id: int" style="text;strokeColor=none;fillColor=none;align=left;verticalAlign=top;spacingLeft=4;spacingRight=4;overflow=hidden;rotatable=0;points=[[0,0.5],[1,0.5]];portConstraint=eastwest;" parent="Q9fAkQJaOk25oEMOpLRy-231" vertex="1">
          <mxGeometry y="26" width="160" height="26" as="geometry" />
        </mxCell>
        <mxCell id="Q9fAkQJaOk25oEMOpLRy-233" value="-note: int" style="text;strokeColor=none;fillColor=none;align=left;verticalAlign=top;spacingLeft=4;spacingRight=4;overflow=hidden;rotatable=0;points=[[0,0.5],[1,0.5]];portConstraint=eastwest;" parent="Q9fAkQJaOk25oEMOpLRy-231" vertex="1">
          <mxGeometry y="52" width="160" height="26" as="geometry" />
        </mxCell>
        <mxCell id="Q9fAkQJaOk25oEMOpLRy-234" value="-commentaire: string" style="text;strokeColor=none;fillColor=none;align=left;verticalAlign=top;spacingLeft=4;spacingRight=4;overflow=hidden;rotatable=0;points=[[0,0.5],[1,0.5]];portConstraint=eastwest;" parent="Q9fAkQJaOk25oEMOpLRy-231" vertex="1">
          <mxGeometry y="78" width="160" height="26" as="geometry" />
        </mxCell>
        <mxCell id="Q9fAkQJaOk25oEMOpLRy-235" value="-demande_id: int" style="text;strokeColor=none;fillColor=none;align=left;verticalAlign=top;spacingLeft=4;spacingRight=4;overflow=hidden;rotatable=0;points=[[0,0.5],[1,0.5]];portConstraint=eastwest;" parent="Q9fAkQJaOk25oEMOpLRy-231" vertex="1">
          <mxGeometry y="104" width="160" height="26" as="geometry" />
        </mxCell>
        <mxCell id="Q9fAkQJaOk25oEMOpLRy-236" value="-auteur_id: int" style="text;strokeColor=none;fillColor=none;align=left;verticalAlign=top;spacingLeft=4;spacingRight=4;overflow=hidden;rotatable=0;points=[[0,0.5],[1,0.5]];portConstraint=eastwest;" parent="Q9fAkQJaOk25oEMOpLRy-231" vertex="1">
          <mxGeometry y="130" width="160" height="26" as="geometry" />
        </mxCell>
        <mxCell id="Q9fAkQJaOk25oEMOpLRy-237" value="" style="line;strokeWidth=1;fillColor=none;align=left;verticalAlign=middle;spacingTop=-1;spacingLeft=3;spacingRight=3;rotatable=0;labelPosition=right;points=[];portConstraint=eastwest;" parent="Q9fAkQJaOk25oEMOpLRy-231" vertex="1">
          <mxGeometry y="156" width="160" height="8" as="geometry" />
        </mxCell>
        <mxCell id="Q9fAkQJaOk25oEMOpLRy-238" value="+ajouter(): void" style="text;strokeColor=none;fillColor=none;align=left;verticalAlign=top;spacingLeft=4;spacingRight=4;overflow=hidden;rotatable=0;points=[[0,0.5],[1,0.5]];portConstraint=eastwest;" parent="Q9fAkQJaOk25oEMOpLRy-231" vertex="1">
          <mxGeometry y="164" width="160" height="26" as="geometry" />
        </mxCell>
        <mxCell id="Q9fAkQJaOk25oEMOpLRy-239" value="+mettre_a_jour(): void" style="text;strokeColor=none;fillColor=none;align=left;verticalAlign=top;spacingLeft=4;spacingRight=4;overflow=hidden;rotatable=0;points=[[0,0.5],[1,0.5]];portConstraint=eastwest;" parent="Q9fAkQJaOk25oEMOpLRy-231" vertex="1">
          <mxGeometry y="190" width="160" height="26" as="geometry" />
        </mxCell>
        <mxCell id="Q9fAkQJaOk25oEMOpLRy-240" value="Relationships" style="swimlane;fontStyle=1;childLayout=stackLayout;horizontal=1;startSize=26;horizontalStack=0;resizeParent=1;resizeParentMax=0;resizeLast=0;collapsible=1;marginBottom=0;" parent="WIyWlLk6GJQsqaUBKTNV-1" vertex="1">
          <mxGeometry x="30" y="-990" width="210" height="234" as="geometry" />
        </mxCell>
        <mxCell id="Q9fAkQJaOk25oEMOpLRy-241" value="Utilisateur &lt;|-- Client" style="text;strokeColor=none;fillColor=none;align=left;verticalAlign=top;spacingLeft=4;spacingRight=4;overflow=hidden;rotatable=0;points=[[0,0.5],[1,0.5]];portConstraint=eastwest;" parent="Q9fAkQJaOk25oEMOpLRy-240" vertex="1">
          <mxGeometry y="26" width="210" height="26" as="geometry" />
        </mxCell>
        <mxCell id="Q9fAkQJaOk25oEMOpLRy-242" value="Utilisateur &lt;|-- Prestataire" style="text;strokeColor=none;fillColor=none;align=left;verticalAlign=top;spacingLeft=4;spacingRight=4;overflow=hidden;rotatable=0;points=[[0,0.5],[1,0.5]];portConstraint=eastwest;" parent="Q9fAkQJaOk25oEMOpLRy-240" vertex="1">
          <mxGeometry y="52" width="210" height="26" as="geometry" />
        </mxCell>
        <mxCell id="Q9fAkQJaOk25oEMOpLRy-243" value="Utilisateur &lt;|-- Agence" style="text;strokeColor=none;fillColor=none;align=left;verticalAlign=top;spacingLeft=4;spacingRight=4;overflow=hidden;rotatable=0;points=[[0,0.5],[1,0.5]];portConstraint=eastwest;" parent="Q9fAkQJaOk25oEMOpLRy-240" vertex="1">
          <mxGeometry y="78" width="210" height="26" as="geometry" />
        </mxCell>
        <mxCell id="Q9fAkQJaOk25oEMOpLRy-244" value="Client &quot;1&quot; --&gt; &quot;0..*&quot; Demande" style="text;strokeColor=none;fillColor=none;align=left;verticalAlign=top;spacingLeft=4;spacingRight=4;overflow=hidden;rotatable=0;points=[[0,0.5],[1,0.5]];portConstraint=eastwest;" parent="Q9fAkQJaOk25oEMOpLRy-240" vertex="1">
          <mxGeometry y="104" width="210" height="26" as="geometry" />
        </mxCell>
        <mxCell id="Q9fAkQJaOk25oEMOpLRy-245" value="Prestataire &quot;1&quot; --&gt; &quot;0..*&quot; Demande" style="text;strokeColor=none;fillColor=none;align=left;verticalAlign=top;spacingLeft=4;spacingRight=4;overflow=hidden;rotatable=0;points=[[0,0.5],[1,0.5]];portConstraint=eastwest;" parent="Q9fAkQJaOk25oEMOpLRy-240" vertex="1">
          <mxGeometry y="130" width="210" height="26" as="geometry" />
        </mxCell>
        <mxCell id="Q9fAkQJaOk25oEMOpLRy-246" value="Demande &quot;1&quot; --&gt; &quot;1&quot; Paiement" style="text;strokeColor=none;fillColor=none;align=left;verticalAlign=top;spacingLeft=4;spacingRight=4;overflow=hidden;rotatable=0;points=[[0,0.5],[1,0.5]];portConstraint=eastwest;" parent="Q9fAkQJaOk25oEMOpLRy-240" vertex="1">
          <mxGeometry y="156" width="210" height="26" as="geometry" />
        </mxCell>
        <mxCell id="Q9fAkQJaOk25oEMOpLRy-247" value="Demande &quot;1&quot; --&gt; &quot;0..*&quot; Evaluation" style="text;strokeColor=none;fillColor=none;align=left;verticalAlign=top;spacingLeft=4;spacingRight=4;overflow=hidden;rotatable=0;points=[[0,0.5],[1,0.5]];portConstraint=eastwest;" parent="Q9fAkQJaOk25oEMOpLRy-240" vertex="1">
          <mxGeometry y="182" width="210" height="26" as="geometry" />
        </mxCell>
        <mxCell id="Q9fAkQJaOk25oEMOpLRy-248" value="Utilisateur &lt;|-- Administrateur" style="text;strokeColor=none;fillColor=none;align=left;verticalAlign=top;spacingLeft=4;spacingRight=4;overflow=hidden;rotatable=0;points=[[0,0.5],[1,0.5]];portConstraint=eastwest;" parent="Q9fAkQJaOk25oEMOpLRy-240" vertex="1">
          <mxGeometry y="208" width="210" height="26" as="geometry" />
        </mxCell>
        <mxCell id="ND50Zq3C4ARqQljdNVHn-0" value="Role" style="swimlane;fontStyle=1;childLayout=stackLayout;horizontal=1;startSize=26;horizontalStack=0;resizeParent=1;resizeParentMax=0;resizeLast=0;collapsible=1;marginBottom=0;" parent="WIyWlLk6GJQsqaUBKTNV-1" vertex="1">
          <mxGeometry x="-880" y="875" width="160" height="190" as="geometry" />
        </mxCell>
        <mxCell id="ND50Zq3C4ARqQljdNVHn-1" value="-id: int" style="text;strokeColor=none;fillColor=none;align=left;verticalAlign=top;spacingLeft=4;spacingRight=4;overflow=hidden;rotatable=0;points=[[0,0.5],[1,0.5]];portConstraint=eastwest;" parent="ND50Zq3C4ARqQljdNVHn-0" vertex="1">
          <mxGeometry y="26" width="160" height="26" as="geometry" />
        </mxCell>
        <mxCell id="ND50Zq3C4ARqQljdNVHn-2" value="-nom: string" style="text;strokeColor=none;fillColor=none;align=left;verticalAlign=top;spacingLeft=4;spacingRight=4;overflow=hidden;rotatable=0;points=[[0,0.5],[1,0.5]];portConstraint=eastwest;" parent="ND50Zq3C4ARqQljdNVHn-0" vertex="1">
          <mxGeometry y="52" width="160" height="26" as="geometry" />
        </mxCell>
        <mxCell id="ND50Zq3C4ARqQljdNVHn-3" value="-code: string" style="text;strokeColor=none;fillColor=none;align=left;verticalAlign=top;spacingLeft=4;spacingRight=4;overflow=hidden;rotatable=0;points=[[0,0.5],[1,0.5]];portConstraint=eastwest;" parent="ND50Zq3C4ARqQljdNVHn-0" vertex="1">
          <mxGeometry y="78" width="160" height="26" as="geometry" />
        </mxCell>
        <mxCell id="ND50Zq3C4ARqQljdNVHn-4" value="-description: string" style="text;strokeColor=none;fillColor=none;align=left;verticalAlign=top;spacingLeft=4;spacingRight=4;overflow=hidden;rotatable=0;points=[[0,0.5],[1,0.5]];portConstraint=eastwest;" parent="ND50Zq3C4ARqQljdNVHn-0" vertex="1">
          <mxGeometry y="104" width="160" height="26" as="geometry" />
        </mxCell>
        <mxCell id="ND50Zq3C4ARqQljdNVHn-6" value="" style="line;strokeWidth=1;fillColor=none;align=left;verticalAlign=middle;spacingTop=-1;spacingLeft=3;spacingRight=3;rotatable=0;labelPosition=right;points=[];portConstraint=eastwest;" parent="ND50Zq3C4ARqQljdNVHn-0" vertex="1">
          <mxGeometry y="130" width="160" height="8" as="geometry" />
        </mxCell>
        <mxCell id="ND50Zq3C4ARqQljdNVHn-7" value="+merge(): int" style="text;strokeColor=none;fillColor=none;align=left;verticalAlign=top;spacingLeft=4;spacingRight=4;overflow=hidden;rotatable=0;points=[[0,0.5],[1,0.5]];portConstraint=eastwest;" parent="ND50Zq3C4ARqQljdNVHn-0" vertex="1">
          <mxGeometry y="138" width="160" height="26" as="geometry" />
        </mxCell>
        <mxCell id="ND50Zq3C4ARqQljdNVHn-8" value="+delete(): void" style="text;strokeColor=none;fillColor=none;align=left;verticalAlign=top;spacingLeft=4;spacingRight=4;overflow=hidden;rotatable=0;points=[[0,0.5],[1,0.5]];portConstraint=eastwest;" parent="ND50Zq3C4ARqQljdNVHn-0" vertex="1">
          <mxGeometry y="164" width="160" height="26" as="geometry" />
        </mxCell>
        <mxCell id="ND50Zq3C4ARqQljdNVHn-12" value="Historique" style="swimlane;fontStyle=1;childLayout=stackLayout;horizontal=1;startSize=26;horizontalStack=0;resizeParent=1;resizeParentMax=0;resizeLast=0;collapsible=1;marginBottom=0;" parent="WIyWlLk6GJQsqaUBKTNV-1" vertex="1">
          <mxGeometry x="-690" y="875" width="160" height="164" as="geometry" />
        </mxCell>
        <mxCell id="ND50Zq3C4ARqQljdNVHn-13" value="-id: int" style="text;strokeColor=none;fillColor=none;align=left;verticalAlign=top;spacingLeft=4;spacingRight=4;overflow=hidden;rotatable=0;points=[[0,0.5],[1,0.5]];portConstraint=eastwest;" parent="ND50Zq3C4ARqQljdNVHn-12" vertex="1">
          <mxGeometry y="26" width="160" height="26" as="geometry" />
        </mxCell>
        <mxCell id="ND50Zq3C4ARqQljdNVHn-14" value="-user_id: int" style="text;strokeColor=none;fillColor=none;align=left;verticalAlign=top;spacingLeft=4;spacingRight=4;overflow=hidden;rotatable=0;points=[[0,0.5],[1,0.5]];portConstraint=eastwest;" parent="ND50Zq3C4ARqQljdNVHn-12" vertex="1">
          <mxGeometry y="52" width="160" height="26" as="geometry" />
        </mxCell>
        <mxCell id="ND50Zq3C4ARqQljdNVHn-22" value="-demande_id: int" style="text;strokeColor=none;fillColor=none;align=left;verticalAlign=top;spacingLeft=4;spacingRight=4;overflow=hidden;rotatable=0;points=[[0,0.5],[1,0.5]];portConstraint=eastwest;" parent="ND50Zq3C4ARqQljdNVHn-12" vertex="1">
          <mxGeometry y="78" width="160" height="26" as="geometry" />
        </mxCell>
        <mxCell id="ND50Zq3C4ARqQljdNVHn-16" value="-description: string" style="text;strokeColor=none;fillColor=none;align=left;verticalAlign=top;spacingLeft=4;spacingRight=4;overflow=hidden;rotatable=0;points=[[0,0.5],[1,0.5]];portConstraint=eastwest;" parent="ND50Zq3C4ARqQljdNVHn-12" vertex="1">
          <mxGeometry y="104" width="160" height="26" as="geometry" />
        </mxCell>
        <mxCell id="ND50Zq3C4ARqQljdNVHn-18" value="" style="line;strokeWidth=1;fillColor=none;align=left;verticalAlign=middle;spacingTop=-1;spacingLeft=3;spacingRight=3;rotatable=0;labelPosition=right;points=[];portConstraint=eastwest;" parent="ND50Zq3C4ARqQljdNVHn-12" vertex="1">
          <mxGeometry y="130" width="160" height="8" as="geometry" />
        </mxCell>
        <mxCell id="ND50Zq3C4ARqQljdNVHn-20" value="+add(): void" style="text;strokeColor=none;fillColor=none;align=left;verticalAlign=top;spacingLeft=4;spacingRight=4;overflow=hidden;rotatable=0;points=[[0,0.5],[1,0.5]];portConstraint=eastwest;" parent="ND50Zq3C4ARqQljdNVHn-12" vertex="1">
          <mxGeometry y="138" width="160" height="26" as="geometry" />
        </mxCell>
        <mxCell id="ND50Zq3C4ARqQljdNVHn-23" value="Document" style="swimlane;fontStyle=1;childLayout=stackLayout;horizontal=1;startSize=26;horizontalStack=0;resizeParent=1;resizeParentMax=0;resizeLast=0;collapsible=1;marginBottom=0;" parent="WIyWlLk6GJQsqaUBKTNV-1" vertex="1">
          <mxGeometry x="-260" y="880" width="180" height="268" as="geometry" />
        </mxCell>
        <mxCell id="ND50Zq3C4ARqQljdNVHn-24" value="-id: int" style="text;strokeColor=none;fillColor=none;align=left;verticalAlign=top;spacingLeft=4;spacingRight=4;overflow=hidden;rotatable=0;points=[[0,0.5],[1,0.5]];portConstraint=eastwest;" parent="ND50Zq3C4ARqQljdNVHn-23" vertex="1">
          <mxGeometry y="26" width="180" height="26" as="geometry" />
        </mxCell>
        <mxCell id="ND50Zq3C4ARqQljdNVHn-27" value="-nom: string" style="text;strokeColor=none;fillColor=none;align=left;verticalAlign=top;spacingLeft=4;spacingRight=4;overflow=hidden;rotatable=0;points=[[0,0.5],[1,0.5]];portConstraint=eastwest;" parent="ND50Zq3C4ARqQljdNVHn-23" vertex="1">
          <mxGeometry y="52" width="180" height="26" as="geometry" />
        </mxCell>
        <mxCell id="ND50Zq3C4ARqQljdNVHn-25" value="-size: string" style="text;strokeColor=none;fillColor=none;align=left;verticalAlign=top;spacingLeft=4;spacingRight=4;overflow=hidden;rotatable=0;points=[[0,0.5],[1,0.5]];portConstraint=eastwest;" parent="ND50Zq3C4ARqQljdNVHn-23" vertex="1">
          <mxGeometry y="78" width="180" height="26" as="geometry" />
        </mxCell>
        <mxCell id="ND50Zq3C4ARqQljdNVHn-26" value="-type: Date" style="text;strokeColor=none;fillColor=none;align=left;verticalAlign=top;spacingLeft=4;spacingRight=4;overflow=hidden;rotatable=0;points=[[0,0.5],[1,0.5]];portConstraint=eastwest;" parent="ND50Zq3C4ARqQljdNVHn-23" vertex="1">
          <mxGeometry y="104" width="180" height="26" as="geometry" />
        </mxCell>
        <mxCell id="ND50Zq3C4ARqQljdNVHn-28" value="-extension: int" style="text;strokeColor=none;fillColor=none;align=left;verticalAlign=top;spacingLeft=4;spacingRight=4;overflow=hidden;rotatable=0;points=[[0,0.5],[1,0.5]];portConstraint=eastwest;" parent="ND50Zq3C4ARqQljdNVHn-23" vertex="1">
          <mxGeometry y="130" width="180" height="26" as="geometry" />
        </mxCell>
        <mxCell id="ND50Zq3C4ARqQljdNVHn-30" value="-agence_id: int" style="text;strokeColor=none;fillColor=none;align=left;verticalAlign=top;spacingLeft=4;spacingRight=4;overflow=hidden;rotatable=0;points=[[0,0.5],[1,0.5]];portConstraint=eastwest;" parent="ND50Zq3C4ARqQljdNVHn-23" vertex="1">
          <mxGeometry y="156" width="180" height="26" as="geometry" />
        </mxCell>
        <mxCell id="ND50Zq3C4ARqQljdNVHn-31" value="" style="line;strokeWidth=1;fillColor=none;align=left;verticalAlign=middle;spacingTop=-1;spacingLeft=3;spacingRight=3;rotatable=0;labelPosition=right;points=[];portConstraint=eastwest;" parent="ND50Zq3C4ARqQljdNVHn-23" vertex="1">
          <mxGeometry y="182" width="180" height="8" as="geometry" />
        </mxCell>
        <mxCell id="ND50Zq3C4ARqQljdNVHn-32" value="+add(): void" style="text;strokeColor=none;fillColor=none;align=left;verticalAlign=top;spacingLeft=4;spacingRight=4;overflow=hidden;rotatable=0;points=[[0,0.5],[1,0.5]];portConstraint=eastwest;" parent="ND50Zq3C4ARqQljdNVHn-23" vertex="1">
          <mxGeometry y="190" width="180" height="26" as="geometry" />
        </mxCell>
        <mxCell id="ND50Zq3C4ARqQljdNVHn-45" value="+update(): void" style="text;strokeColor=none;fillColor=none;align=left;verticalAlign=top;spacingLeft=4;spacingRight=4;overflow=hidden;rotatable=0;points=[[0,0.5],[1,0.5]];portConstraint=eastwest;" parent="ND50Zq3C4ARqQljdNVHn-23" vertex="1">
          <mxGeometry y="216" width="180" height="26" as="geometry" />
        </mxCell>
        <mxCell id="ND50Zq3C4ARqQljdNVHn-44" value="+delete(): void" style="text;strokeColor=none;fillColor=none;align=left;verticalAlign=top;spacingLeft=4;spacingRight=4;overflow=hidden;rotatable=0;points=[[0,0.5],[1,0.5]];portConstraint=eastwest;" parent="ND50Zq3C4ARqQljdNVHn-23" vertex="1">
          <mxGeometry y="242" width="180" height="26" as="geometry" />
        </mxCell>
        <mxCell id="ND50Zq3C4ARqQljdNVHn-65" value="Service" style="swimlane;fontStyle=1;childLayout=stackLayout;horizontal=1;startSize=26;horizontalStack=0;resizeParent=1;resizeParentMax=0;resizeLast=0;collapsible=1;marginBottom=0;" parent="WIyWlLk6GJQsqaUBKTNV-1" vertex="1">
          <mxGeometry x="-490" y="880" width="180" height="268" as="geometry" />
        </mxCell>
        <mxCell id="ND50Zq3C4ARqQljdNVHn-66" value="-id: int" style="text;strokeColor=none;fillColor=none;align=left;verticalAlign=top;spacingLeft=4;spacingRight=4;overflow=hidden;rotatable=0;points=[[0,0.5],[1,0.5]];portConstraint=eastwest;" parent="ND50Zq3C4ARqQljdNVHn-65" vertex="1">
          <mxGeometry y="26" width="180" height="26" as="geometry" />
        </mxCell>
        <mxCell id="ND50Zq3C4ARqQljdNVHn-67" value="-description: string" style="text;strokeColor=none;fillColor=none;align=left;verticalAlign=top;spacingLeft=4;spacingRight=4;overflow=hidden;rotatable=0;points=[[0,0.5],[1,0.5]];portConstraint=eastwest;" parent="ND50Zq3C4ARqQljdNVHn-65" vertex="1">
          <mxGeometry y="52" width="180" height="26" as="geometry" />
        </mxCell>
        <mxCell id="ND50Zq3C4ARqQljdNVHn-68" value="-date_creation: Date" style="text;strokeColor=none;fillColor=none;align=left;verticalAlign=top;spacingLeft=4;spacingRight=4;overflow=hidden;rotatable=0;points=[[0,0.5],[1,0.5]];portConstraint=eastwest;" parent="ND50Zq3C4ARqQljdNVHn-65" vertex="1">
          <mxGeometry y="78" width="180" height="26" as="geometry" />
        </mxCell>
        <mxCell id="ND50Zq3C4ARqQljdNVHn-69" value="-status: string" style="text;strokeColor=none;fillColor=none;align=left;verticalAlign=top;spacingLeft=4;spacingRight=4;overflow=hidden;rotatable=0;points=[[0,0.5],[1,0.5]];portConstraint=eastwest;" parent="ND50Zq3C4ARqQljdNVHn-65" vertex="1">
          <mxGeometry y="104" width="180" height="26" as="geometry" />
        </mxCell>
        <mxCell id="ND50Zq3C4ARqQljdNVHn-70" value="-client_id: int" style="text;strokeColor=none;fillColor=none;align=left;verticalAlign=top;spacingLeft=4;spacingRight=4;overflow=hidden;rotatable=0;points=[[0,0.5],[1,0.5]];portConstraint=eastwest;" parent="ND50Zq3C4ARqQljdNVHn-65" vertex="1">
          <mxGeometry y="130" width="180" height="26" as="geometry" />
        </mxCell>
        <mxCell id="ND50Zq3C4ARqQljdNVHn-71" value="-prestataire_id: int" style="text;strokeColor=none;fillColor=none;align=left;verticalAlign=top;spacingLeft=4;spacingRight=4;overflow=hidden;rotatable=0;points=[[0,0.5],[1,0.5]];portConstraint=eastwest;" parent="ND50Zq3C4ARqQljdNVHn-65" vertex="1">
          <mxGeometry y="156" width="180" height="26" as="geometry" />
        </mxCell>
        <mxCell id="ND50Zq3C4ARqQljdNVHn-72" value="-agence_id: int" style="text;strokeColor=none;fillColor=none;align=left;verticalAlign=top;spacingLeft=4;spacingRight=4;overflow=hidden;rotatable=0;points=[[0,0.5],[1,0.5]];portConstraint=eastwest;" parent="ND50Zq3C4ARqQljdNVHn-65" vertex="1">
          <mxGeometry y="182" width="180" height="26" as="geometry" />
        </mxCell>
        <mxCell id="ND50Zq3C4ARqQljdNVHn-73" value="" style="line;strokeWidth=1;fillColor=none;align=left;verticalAlign=middle;spacingTop=-1;spacingLeft=3;spacingRight=3;rotatable=0;labelPosition=right;points=[];portConstraint=eastwest;" parent="ND50Zq3C4ARqQljdNVHn-65" vertex="1">
          <mxGeometry y="208" width="180" height="8" as="geometry" />
        </mxCell>
        <mxCell id="ND50Zq3C4ARqQljdNVHn-74" value="+creer(): void" style="text;strokeColor=none;fillColor=none;align=left;verticalAlign=top;spacingLeft=4;spacingRight=4;overflow=hidden;rotatable=0;points=[[0,0.5],[1,0.5]];portConstraint=eastwest;" parent="ND50Zq3C4ARqQljdNVHn-65" vertex="1">
          <mxGeometry y="216" width="180" height="26" as="geometry" />
        </mxCell>
        <mxCell id="ND50Zq3C4ARqQljdNVHn-75" value="+mettre_a_jour_status(): void" style="text;strokeColor=none;fillColor=none;align=left;verticalAlign=top;spacingLeft=4;spacingRight=4;overflow=hidden;rotatable=0;points=[[0,0.5],[1,0.5]];portConstraint=eastwest;" parent="ND50Zq3C4ARqQljdNVHn-65" vertex="1">
          <mxGeometry y="242" width="180" height="26" as="geometry" />
        </mxCell>
        <mxCell id="5FLD3c6R4TDMzl3Ixkjo-248" style="edgeStyle=orthogonalEdgeStyle;rounded=0;orthogonalLoop=1;jettySize=auto;html=1;entryX=0.5;entryY=0;entryDx=0;entryDy=0;" parent="WIyWlLk6GJQsqaUBKTNV-1" source="5FLD3c6R4TDMzl3Ixkjo-0" target="5FLD3c6R4TDMzl3Ixkjo-37" edge="1">
          <mxGeometry relative="1" as="geometry" />
        </mxCell>
        <mxCell id="5FLD3c6R4TDMzl3Ixkjo-0" value="Utilisateur" style="swimlane;fontStyle=1;childLayout=stackLayout;horizontal=1;startSize=26;horizontalStack=0;resizeParent=1;resizeParentMax=0;resizeLast=0;collapsible=1;marginBottom=0;" parent="WIyWlLk6GJQsqaUBKTNV-1" vertex="1">
          <mxGeometry x="-1700" y="-210" width="160" height="216" as="geometry" />
        </mxCell>
        <mxCell id="5FLD3c6R4TDMzl3Ixkjo-1" value="-id: int" style="text;strokeColor=none;fillColor=none;align=left;verticalAlign=top;spacingLeft=4;spacingRight=4;overflow=hidden;rotatable=0;points=[[0,0.5],[1,0.5]];portConstraint=eastwest;" parent="5FLD3c6R4TDMzl3Ixkjo-0" vertex="1">
          <mxGeometry y="26" width="160" height="26" as="geometry" />
        </mxCell>
        <mxCell id="5FLD3c6R4TDMzl3Ixkjo-2" value="-nom: string" style="text;strokeColor=none;fillColor=none;align=left;verticalAlign=top;spacingLeft=4;spacingRight=4;overflow=hidden;rotatable=0;points=[[0,0.5],[1,0.5]];portConstraint=eastwest;" parent="5FLD3c6R4TDMzl3Ixkjo-0" vertex="1">
          <mxGeometry y="52" width="160" height="26" as="geometry" />
        </mxCell>
        <mxCell id="5FLD3c6R4TDMzl3Ixkjo-3" value="-email: string" style="text;strokeColor=none;fillColor=none;align=left;verticalAlign=top;spacingLeft=4;spacingRight=4;overflow=hidden;rotatable=0;points=[[0,0.5],[1,0.5]];portConstraint=eastwest;" parent="5FLD3c6R4TDMzl3Ixkjo-0" vertex="1">
          <mxGeometry y="78" width="160" height="26" as="geometry" />
        </mxCell>
        <mxCell id="5FLD3c6R4TDMzl3Ixkjo-4" value="-mot_de_passe: string" style="text;strokeColor=none;fillColor=none;align=left;verticalAlign=top;spacingLeft=4;spacingRight=4;overflow=hidden;rotatable=0;points=[[0,0.5],[1,0.5]];portConstraint=eastwest;" parent="5FLD3c6R4TDMzl3Ixkjo-0" vertex="1">
          <mxGeometry y="104" width="160" height="26" as="geometry" />
        </mxCell>
        <mxCell id="5FLD3c6R4TDMzl3Ixkjo-5" value="-role_id: int" style="text;strokeColor=none;fillColor=none;align=left;verticalAlign=top;spacingLeft=4;spacingRight=4;overflow=hidden;rotatable=0;points=[[0,0.5],[1,0.5]];portConstraint=eastwest;" parent="5FLD3c6R4TDMzl3Ixkjo-0" vertex="1">
          <mxGeometry y="130" width="160" height="26" as="geometry" />
        </mxCell>
        <mxCell id="5FLD3c6R4TDMzl3Ixkjo-6" value="" style="line;strokeWidth=1;fillColor=none;align=left;verticalAlign=middle;spacingTop=-1;spacingLeft=3;spacingRight=3;rotatable=0;labelPosition=right;points=[];portConstraint=eastwest;" parent="5FLD3c6R4TDMzl3Ixkjo-0" vertex="1">
          <mxGeometry y="156" width="160" height="8" as="geometry" />
        </mxCell>
        <mxCell id="5FLD3c6R4TDMzl3Ixkjo-7" value="+inscrire(): void" style="text;strokeColor=none;fillColor=none;align=left;verticalAlign=top;spacingLeft=4;spacingRight=4;overflow=hidden;rotatable=0;points=[[0,0.5],[1,0.5]];portConstraint=eastwest;" parent="5FLD3c6R4TDMzl3Ixkjo-0" vertex="1">
          <mxGeometry y="164" width="160" height="26" as="geometry" />
        </mxCell>
        <mxCell id="5FLD3c6R4TDMzl3Ixkjo-8" value="+connecter(): void" style="text;strokeColor=none;fillColor=none;align=left;verticalAlign=top;spacingLeft=4;spacingRight=4;overflow=hidden;rotatable=0;points=[[0,0.5],[1,0.5]];portConstraint=eastwest;" parent="5FLD3c6R4TDMzl3Ixkjo-0" vertex="1">
          <mxGeometry y="190" width="160" height="26" as="geometry" />
        </mxCell>
        <mxCell id="5FLD3c6R4TDMzl3Ixkjo-250" style="edgeStyle=orthogonalEdgeStyle;rounded=0;orthogonalLoop=1;jettySize=auto;html=1;entryX=0.5;entryY=0;entryDx=0;entryDy=0;" parent="WIyWlLk6GJQsqaUBKTNV-1" source="5FLD3c6R4TDMzl3Ixkjo-9" target="5FLD3c6R4TDMzl3Ixkjo-0" edge="1">
          <mxGeometry relative="1" as="geometry">
            <mxPoint x="-1630" y="-220" as="targetPoint" />
            <Array as="points">
              <mxPoint x="-1440" y="-160" />
              <mxPoint x="-1440" y="-230" />
              <mxPoint x="-1620" y="-230" />
            </Array>
          </mxGeometry>
        </mxCell>
        <mxCell id="5FLD3c6R4TDMzl3Ixkjo-278" style="edgeStyle=orthogonalEdgeStyle;rounded=0;orthogonalLoop=1;jettySize=auto;html=1;" parent="WIyWlLk6GJQsqaUBKTNV-1" source="5FLD3c6R4TDMzl3Ixkjo-9" target="5FLD3c6R4TDMzl3Ixkjo-276" edge="1">
          <mxGeometry relative="1" as="geometry">
            <Array as="points">
              <mxPoint x="-960" y="-169" />
              <mxPoint x="-960" y="-113" />
            </Array>
          </mxGeometry>
        </mxCell>
        <mxCell id="5FLD3c6R4TDMzl3Ixkjo-9" value="Demande" style="swimlane;fontStyle=1;childLayout=stackLayout;horizontal=1;startSize=26;horizontalStack=0;resizeParent=1;resizeParentMax=0;resizeLast=0;collapsible=1;marginBottom=0;" parent="WIyWlLk6GJQsqaUBKTNV-1" vertex="1">
          <mxGeometry x="-1340" y="-290" width="210" height="242" as="geometry" />
        </mxCell>
        <mxCell id="5FLD3c6R4TDMzl3Ixkjo-10" value="-id: int" style="text;strokeColor=none;fillColor=none;align=left;verticalAlign=top;spacingLeft=4;spacingRight=4;overflow=hidden;rotatable=0;points=[[0,0.5],[1,0.5]];portConstraint=eastwest;" parent="5FLD3c6R4TDMzl3Ixkjo-9" vertex="1">
          <mxGeometry y="26" width="210" height="26" as="geometry" />
        </mxCell>
        <mxCell id="5FLD3c6R4TDMzl3Ixkjo-11" value="-description: string" style="text;strokeColor=none;fillColor=none;align=left;verticalAlign=top;spacingLeft=4;spacingRight=4;overflow=hidden;rotatable=0;points=[[0,0.5],[1,0.5]];portConstraint=eastwest;" parent="5FLD3c6R4TDMzl3Ixkjo-9" vertex="1">
          <mxGeometry y="52" width="210" height="26" as="geometry" />
        </mxCell>
        <mxCell id="5FLD3c6R4TDMzl3Ixkjo-12" value="-date_creation: Date" style="text;strokeColor=none;fillColor=none;align=left;verticalAlign=top;spacingLeft=4;spacingRight=4;overflow=hidden;rotatable=0;points=[[0,0.5],[1,0.5]];portConstraint=eastwest;" parent="5FLD3c6R4TDMzl3Ixkjo-9" vertex="1">
          <mxGeometry y="78" width="210" height="26" as="geometry" />
        </mxCell>
        <mxCell id="5FLD3c6R4TDMzl3Ixkjo-13" value="-status: string" style="text;strokeColor=none;fillColor=none;align=left;verticalAlign=top;spacingLeft=4;spacingRight=4;overflow=hidden;rotatable=0;points=[[0,0.5],[1,0.5]];portConstraint=eastwest;" parent="5FLD3c6R4TDMzl3Ixkjo-9" vertex="1">
          <mxGeometry y="104" width="210" height="26" as="geometry" />
        </mxCell>
        <mxCell id="5FLD3c6R4TDMzl3Ixkjo-14" value="-utilisateur_id: int" style="text;strokeColor=none;fillColor=none;align=left;verticalAlign=top;spacingLeft=4;spacingRight=4;overflow=hidden;rotatable=0;points=[[0,0.5],[1,0.5]];portConstraint=eastwest;" parent="5FLD3c6R4TDMzl3Ixkjo-9" vertex="1">
          <mxGeometry y="130" width="210" height="26" as="geometry" />
        </mxCell>
        <mxCell id="5FLD3c6R4TDMzl3Ixkjo-15" value="-type_demande_id: int" style="text;strokeColor=none;fillColor=none;align=left;verticalAlign=top;spacingLeft=4;spacingRight=4;overflow=hidden;rotatable=0;points=[[0,0.5],[1,0.5]];portConstraint=eastwest;" parent="5FLD3c6R4TDMzl3Ixkjo-9" vertex="1">
          <mxGeometry y="156" width="210" height="26" as="geometry" />
        </mxCell>
        <mxCell id="5FLD3c6R4TDMzl3Ixkjo-16" value="" style="line;strokeWidth=1;fillColor=none;align=left;verticalAlign=middle;spacingTop=-1;spacingLeft=3;spacingRight=3;rotatable=0;labelPosition=right;points=[];portConstraint=eastwest;" parent="5FLD3c6R4TDMzl3Ixkjo-9" vertex="1">
          <mxGeometry y="182" width="210" height="8" as="geometry" />
        </mxCell>
        <mxCell id="5FLD3c6R4TDMzl3Ixkjo-17" value="+creer(): void" style="text;strokeColor=none;fillColor=none;align=left;verticalAlign=top;spacingLeft=4;spacingRight=4;overflow=hidden;rotatable=0;points=[[0,0.5],[1,0.5]];portConstraint=eastwest;" parent="5FLD3c6R4TDMzl3Ixkjo-9" vertex="1">
          <mxGeometry y="190" width="210" height="26" as="geometry" />
        </mxCell>
        <mxCell id="5FLD3c6R4TDMzl3Ixkjo-18" value="+mettre_a_jour_status(): void" style="text;strokeColor=none;fillColor=none;align=left;verticalAlign=top;spacingLeft=4;spacingRight=4;overflow=hidden;rotatable=0;points=[[0,0.5],[1,0.5]];portConstraint=eastwest;" parent="5FLD3c6R4TDMzl3Ixkjo-9" vertex="1">
          <mxGeometry y="216" width="210" height="26" as="geometry" />
        </mxCell>
        <mxCell id="5FLD3c6R4TDMzl3Ixkjo-19" value="Paiement" style="swimlane;fontStyle=1;childLayout=stackLayout;horizontal=1;startSize=26;horizontalStack=0;resizeParent=1;resizeParentMax=0;resizeLast=0;collapsible=1;marginBottom=0;" parent="WIyWlLk6GJQsqaUBKTNV-1" vertex="1">
          <mxGeometry x="-940" y="-380" width="160" height="216" as="geometry" />
        </mxCell>
        <mxCell id="5FLD3c6R4TDMzl3Ixkjo-20" value="-id: int" style="text;strokeColor=none;fillColor=none;align=left;verticalAlign=top;spacingLeft=4;spacingRight=4;overflow=hidden;rotatable=0;points=[[0,0.5],[1,0.5]];portConstraint=eastwest;" parent="5FLD3c6R4TDMzl3Ixkjo-19" vertex="1">
          <mxGeometry y="26" width="160" height="26" as="geometry" />
        </mxCell>
        <mxCell id="5FLD3c6R4TDMzl3Ixkjo-21" value="-montant: double" style="text;strokeColor=none;fillColor=none;align=left;verticalAlign=top;spacingLeft=4;spacingRight=4;overflow=hidden;rotatable=0;points=[[0,0.5],[1,0.5]];portConstraint=eastwest;" parent="5FLD3c6R4TDMzl3Ixkjo-19" vertex="1">
          <mxGeometry y="52" width="160" height="26" as="geometry" />
        </mxCell>
        <mxCell id="5FLD3c6R4TDMzl3Ixkjo-22" value="-date: Date" style="text;strokeColor=none;fillColor=none;align=left;verticalAlign=top;spacingLeft=4;spacingRight=4;overflow=hidden;rotatable=0;points=[[0,0.5],[1,0.5]];portConstraint=eastwest;" parent="5FLD3c6R4TDMzl3Ixkjo-19" vertex="1">
          <mxGeometry y="78" width="160" height="26" as="geometry" />
        </mxCell>
        <mxCell id="5FLD3c6R4TDMzl3Ixkjo-23" value="-demande_id: int" style="text;strokeColor=none;fillColor=none;align=left;verticalAlign=top;spacingLeft=4;spacingRight=4;overflow=hidden;rotatable=0;points=[[0,0.5],[1,0.5]];portConstraint=eastwest;" parent="5FLD3c6R4TDMzl3Ixkjo-19" vertex="1">
          <mxGeometry y="104" width="160" height="26" as="geometry" />
        </mxCell>
        <mxCell id="5FLD3c6R4TDMzl3Ixkjo-24" value="-type_paiement_id: int" style="text;strokeColor=none;fillColor=none;align=left;verticalAlign=top;spacingLeft=4;spacingRight=4;overflow=hidden;rotatable=0;points=[[0,0.5],[1,0.5]];portConstraint=eastwest;" parent="5FLD3c6R4TDMzl3Ixkjo-19" vertex="1">
          <mxGeometry y="130" width="160" height="26" as="geometry" />
        </mxCell>
        <mxCell id="5FLD3c6R4TDMzl3Ixkjo-25" value="" style="line;strokeWidth=1;fillColor=none;align=left;verticalAlign=middle;spacingTop=-1;spacingLeft=3;spacingRight=3;rotatable=0;labelPosition=right;points=[];portConstraint=eastwest;" parent="5FLD3c6R4TDMzl3Ixkjo-19" vertex="1">
          <mxGeometry y="156" width="160" height="8" as="geometry" />
        </mxCell>
        <mxCell id="5FLD3c6R4TDMzl3Ixkjo-26" value="+effectuer(): void" style="text;strokeColor=none;fillColor=none;align=left;verticalAlign=top;spacingLeft=4;spacingRight=4;overflow=hidden;rotatable=0;points=[[0,0.5],[1,0.5]];portConstraint=eastwest;" parent="5FLD3c6R4TDMzl3Ixkjo-19" vertex="1">
          <mxGeometry y="164" width="160" height="26" as="geometry" />
        </mxCell>
        <mxCell id="5FLD3c6R4TDMzl3Ixkjo-27" value="+rembourser(): void" style="text;strokeColor=none;fillColor=none;align=left;verticalAlign=top;spacingLeft=4;spacingRight=4;overflow=hidden;rotatable=0;points=[[0,0.5],[1,0.5]];portConstraint=eastwest;" parent="5FLD3c6R4TDMzl3Ixkjo-19" vertex="1">
          <mxGeometry y="190" width="160" height="26" as="geometry" />
        </mxCell>
        <mxCell id="5FLD3c6R4TDMzl3Ixkjo-28" value="Evaluation" style="swimlane;fontStyle=1;childLayout=stackLayout;horizontal=1;startSize=26;horizontalStack=0;resizeParent=1;resizeParentMax=0;resizeLast=0;collapsible=1;marginBottom=0;" parent="WIyWlLk6GJQsqaUBKTNV-1" vertex="1">
          <mxGeometry x="-1250" y="50" width="160" height="320" as="geometry" />
        </mxCell>
        <mxCell id="5FLD3c6R4TDMzl3Ixkjo-29" value="-id: int" style="text;strokeColor=none;fillColor=none;align=left;verticalAlign=top;spacingLeft=4;spacingRight=4;overflow=hidden;rotatable=0;points=[[0,0.5],[1,0.5]];portConstraint=eastwest;" parent="5FLD3c6R4TDMzl3Ixkjo-28" vertex="1">
          <mxGeometry y="26" width="160" height="26" as="geometry" />
        </mxCell>
        <mxCell id="5FLD3c6R4TDMzl3Ixkjo-30" value="-note: int" style="text;strokeColor=none;fillColor=none;align=left;verticalAlign=top;spacingLeft=4;spacingRight=4;overflow=hidden;rotatable=0;points=[[0,0.5],[1,0.5]];portConstraint=eastwest;" parent="5FLD3c6R4TDMzl3Ixkjo-28" vertex="1">
          <mxGeometry y="52" width="160" height="26" as="geometry" />
        </mxCell>
        <mxCell id="5FLD3c6R4TDMzl3Ixkjo-31" value="-commentaire: string" style="text;strokeColor=none;fillColor=none;align=left;verticalAlign=top;spacingLeft=4;spacingRight=4;overflow=hidden;rotatable=0;points=[[0,0.5],[1,0.5]];portConstraint=eastwest;" parent="5FLD3c6R4TDMzl3Ixkjo-28" vertex="1">
          <mxGeometry y="78" width="160" height="26" as="geometry" />
        </mxCell>
        <mxCell id="5FLD3c6R4TDMzl3Ixkjo-32" value="-demande_id: int" style="text;strokeColor=none;fillColor=none;align=left;verticalAlign=top;spacingLeft=4;spacingRight=4;overflow=hidden;rotatable=0;points=[[0,0.5],[1,0.5]];portConstraint=eastwest;" parent="5FLD3c6R4TDMzl3Ixkjo-28" vertex="1">
          <mxGeometry y="104" width="160" height="26" as="geometry" />
        </mxCell>
        <mxCell id="5FLD3c6R4TDMzl3Ixkjo-33" value="-utilisateur_id: int" style="text;strokeColor=none;fillColor=none;align=left;verticalAlign=top;spacingLeft=4;spacingRight=4;overflow=hidden;rotatable=0;points=[[0,0.5],[1,0.5]];portConstraint=eastwest;" parent="5FLD3c6R4TDMzl3Ixkjo-28" vertex="1">
          <mxGeometry y="130" width="160" height="26" as="geometry" />
        </mxCell>
        <mxCell id="5FLD3c6R4TDMzl3Ixkjo-239" value="-edit_by: int" style="text;strokeColor=none;fillColor=none;align=left;verticalAlign=top;spacingLeft=4;spacingRight=4;overflow=hidden;rotatable=0;points=[[0,0.5],[1,0.5]];portConstraint=eastwest;" parent="5FLD3c6R4TDMzl3Ixkjo-28" vertex="1">
          <mxGeometry y="156" width="160" height="26" as="geometry" />
        </mxCell>
        <mxCell id="5FLD3c6R4TDMzl3Ixkjo-242" value="-create_on: Date" style="text;strokeColor=none;fillColor=none;align=left;verticalAlign=top;spacingLeft=4;spacingRight=4;overflow=hidden;rotatable=0;points=[[0,0.5],[1,0.5]];portConstraint=eastwest;" parent="5FLD3c6R4TDMzl3Ixkjo-28" vertex="1">
          <mxGeometry y="182" width="160" height="26" as="geometry" />
        </mxCell>
        <mxCell id="5FLD3c6R4TDMzl3Ixkjo-241" value="-craete_by: int" style="text;strokeColor=none;fillColor=none;align=left;verticalAlign=top;spacingLeft=4;spacingRight=4;overflow=hidden;rotatable=0;points=[[0,0.5],[1,0.5]];portConstraint=eastwest;" parent="5FLD3c6R4TDMzl3Ixkjo-28" vertex="1">
          <mxGeometry y="208" width="160" height="26" as="geometry" />
        </mxCell>
        <mxCell id="5FLD3c6R4TDMzl3Ixkjo-240" value="-edit_on: Date" style="text;strokeColor=none;fillColor=none;align=left;verticalAlign=top;spacingLeft=4;spacingRight=4;overflow=hidden;rotatable=0;points=[[0,0.5],[1,0.5]];portConstraint=eastwest;" parent="5FLD3c6R4TDMzl3Ixkjo-28" vertex="1">
          <mxGeometry y="234" width="160" height="26" as="geometry" />
        </mxCell>
        <mxCell id="5FLD3c6R4TDMzl3Ixkjo-34" value="" style="line;strokeWidth=1;fillColor=none;align=left;verticalAlign=middle;spacingTop=-1;spacingLeft=3;spacingRight=3;rotatable=0;labelPosition=right;points=[];portConstraint=eastwest;" parent="5FLD3c6R4TDMzl3Ixkjo-28" vertex="1">
          <mxGeometry y="260" width="160" height="8" as="geometry" />
        </mxCell>
        <mxCell id="5FLD3c6R4TDMzl3Ixkjo-35" value="+ajouter(): void" style="text;strokeColor=none;fillColor=none;align=left;verticalAlign=top;spacingLeft=4;spacingRight=4;overflow=hidden;rotatable=0;points=[[0,0.5],[1,0.5]];portConstraint=eastwest;" parent="5FLD3c6R4TDMzl3Ixkjo-28" vertex="1">
          <mxGeometry y="268" width="160" height="26" as="geometry" />
        </mxCell>
        <mxCell id="5FLD3c6R4TDMzl3Ixkjo-36" value="+mettre_a_jour(): void" style="text;strokeColor=none;fillColor=none;align=left;verticalAlign=top;spacingLeft=4;spacingRight=4;overflow=hidden;rotatable=0;points=[[0,0.5],[1,0.5]];portConstraint=eastwest;" parent="5FLD3c6R4TDMzl3Ixkjo-28" vertex="1">
          <mxGeometry y="294" width="160" height="26" as="geometry" />
        </mxCell>
        <mxCell id="5FLD3c6R4TDMzl3Ixkjo-37" value="Role" style="swimlane;fontStyle=1;childLayout=stackLayout;horizontal=1;startSize=26;horizontalStack=0;resizeParent=1;resizeParentMax=0;resizeLast=0;collapsible=1;marginBottom=0;" parent="WIyWlLk6GJQsqaUBKTNV-1" vertex="1">
          <mxGeometry x="-1840" y="76" width="160" height="294" as="geometry" />
        </mxCell>
        <mxCell id="5FLD3c6R4TDMzl3Ixkjo-38" value="-id: int" style="text;strokeColor=none;fillColor=none;align=left;verticalAlign=top;spacingLeft=4;spacingRight=4;overflow=hidden;rotatable=0;points=[[0,0.5],[1,0.5]];portConstraint=eastwest;" parent="5FLD3c6R4TDMzl3Ixkjo-37" vertex="1">
          <mxGeometry y="26" width="160" height="26" as="geometry" />
        </mxCell>
        <mxCell id="5FLD3c6R4TDMzl3Ixkjo-45" value="-id: int" style="text;strokeColor=none;fillColor=none;align=left;verticalAlign=top;spacingLeft=4;spacingRight=4;overflow=hidden;rotatable=0;points=[[0,0.5],[1,0.5]];portConstraint=eastwest;" parent="5FLD3c6R4TDMzl3Ixkjo-37" vertex="1">
          <mxGeometry y="52" width="160" height="26" as="geometry" />
        </mxCell>
        <mxCell id="5FLD3c6R4TDMzl3Ixkjo-39" value="-nom: string" style="text;strokeColor=none;fillColor=none;align=left;verticalAlign=top;spacingLeft=4;spacingRight=4;overflow=hidden;rotatable=0;points=[[0,0.5],[1,0.5]];portConstraint=eastwest;" parent="5FLD3c6R4TDMzl3Ixkjo-37" vertex="1">
          <mxGeometry y="78" width="160" height="26" as="geometry" />
        </mxCell>
        <mxCell id="5FLD3c6R4TDMzl3Ixkjo-40" value="-description: string" style="text;strokeColor=none;fillColor=none;align=left;verticalAlign=top;spacingLeft=4;spacingRight=4;overflow=hidden;rotatable=0;points=[[0,0.5],[1,0.5]];portConstraint=eastwest;" parent="5FLD3c6R4TDMzl3Ixkjo-37" vertex="1">
          <mxGeometry y="104" width="160" height="26" as="geometry" />
        </mxCell>
        <mxCell id="ND50Zq3C4ARqQljdNVHn-105" value="-edit_by: int" style="text;strokeColor=none;fillColor=none;align=left;verticalAlign=top;spacingLeft=4;spacingRight=4;overflow=hidden;rotatable=0;points=[[0,0.5],[1,0.5]];portConstraint=eastwest;" parent="5FLD3c6R4TDMzl3Ixkjo-37" vertex="1">
          <mxGeometry y="130" width="160" height="26" as="geometry" />
        </mxCell>
        <mxCell id="ND50Zq3C4ARqQljdNVHn-106" value="-edit_on: Date" style="text;strokeColor=none;fillColor=none;align=left;verticalAlign=top;spacingLeft=4;spacingRight=4;overflow=hidden;rotatable=0;points=[[0,0.5],[1,0.5]];portConstraint=eastwest;" parent="5FLD3c6R4TDMzl3Ixkjo-37" vertex="1">
          <mxGeometry y="156" width="160" height="26" as="geometry" />
        </mxCell>
        <mxCell id="ND50Zq3C4ARqQljdNVHn-107" value="-craete_by: int" style="text;strokeColor=none;fillColor=none;align=left;verticalAlign=top;spacingLeft=4;spacingRight=4;overflow=hidden;rotatable=0;points=[[0,0.5],[1,0.5]];portConstraint=eastwest;" parent="5FLD3c6R4TDMzl3Ixkjo-37" vertex="1">
          <mxGeometry y="182" width="160" height="26" as="geometry" />
        </mxCell>
        <mxCell id="ND50Zq3C4ARqQljdNVHn-104" value="-create_on: Date" style="text;strokeColor=none;fillColor=none;align=left;verticalAlign=top;spacingLeft=4;spacingRight=4;overflow=hidden;rotatable=0;points=[[0,0.5],[1,0.5]];portConstraint=eastwest;" parent="5FLD3c6R4TDMzl3Ixkjo-37" vertex="1">
          <mxGeometry y="208" width="160" height="26" as="geometry" />
        </mxCell>
        <mxCell id="5FLD3c6R4TDMzl3Ixkjo-41" value="" style="line;strokeWidth=1;fillColor=none;align=left;verticalAlign=middle;spacingTop=-1;spacingLeft=3;spacingRight=3;rotatable=0;labelPosition=right;points=[];portConstraint=eastwest;" parent="5FLD3c6R4TDMzl3Ixkjo-37" vertex="1">
          <mxGeometry y="234" width="160" height="8" as="geometry" />
        </mxCell>
        <mxCell id="5FLD3c6R4TDMzl3Ixkjo-42" value="+ajouter(): void" style="text;strokeColor=none;fillColor=none;align=left;verticalAlign=top;spacingLeft=4;spacingRight=4;overflow=hidden;rotatable=0;points=[[0,0.5],[1,0.5]];portConstraint=eastwest;" parent="5FLD3c6R4TDMzl3Ixkjo-37" vertex="1">
          <mxGeometry y="242" width="160" height="26" as="geometry" />
        </mxCell>
        <mxCell id="5FLD3c6R4TDMzl3Ixkjo-43" value="+modifier(): void" style="text;strokeColor=none;fillColor=none;align=left;verticalAlign=top;spacingLeft=4;spacingRight=4;overflow=hidden;rotatable=0;points=[[0,0.5],[1,0.5]];portConstraint=eastwest;" parent="5FLD3c6R4TDMzl3Ixkjo-37" vertex="1">
          <mxGeometry y="268" width="160" height="26" as="geometry" />
        </mxCell>
        <mxCell id="5FLD3c6R4TDMzl3Ixkjo-44" value="Historique" style="swimlane;fontStyle=1;childLayout=stackLayout;horizontal=1;startSize=26;horizontalStack=0;resizeParent=1;resizeParentMax=0;resizeLast=0;collapsible=1;marginBottom=0;" parent="WIyWlLk6GJQsqaUBKTNV-1" vertex="1">
          <mxGeometry x="-1590" y="240" width="160" height="164" as="geometry" />
        </mxCell>
        <mxCell id="5FLD3c6R4TDMzl3Ixkjo-46" value="-utilisateur_id: int" style="text;strokeColor=none;fillColor=none;align=left;verticalAlign=top;spacingLeft=4;spacingRight=4;overflow=hidden;rotatable=0;points=[[0,0.5],[1,0.5]];portConstraint=eastwest;" parent="5FLD3c6R4TDMzl3Ixkjo-44" vertex="1">
          <mxGeometry y="26" width="160" height="26" as="geometry" />
        </mxCell>
        <mxCell id="5FLD3c6R4TDMzl3Ixkjo-47" value="-action: string" style="text;strokeColor=none;fillColor=none;align=left;verticalAlign=top;spacingLeft=4;spacingRight=4;overflow=hidden;rotatable=0;points=[[0,0.5],[1,0.5]];portConstraint=eastwest;" parent="5FLD3c6R4TDMzl3Ixkjo-44" vertex="1">
          <mxGeometry y="52" width="160" height="26" as="geometry" />
        </mxCell>
        <mxCell id="5FLD3c6R4TDMzl3Ixkjo-48" value="-date: Date" style="text;strokeColor=none;fillColor=none;align=left;verticalAlign=top;spacingLeft=4;spacingRight=4;overflow=hidden;rotatable=0;points=[[0,0.5],[1,0.5]];portConstraint=eastwest;" parent="5FLD3c6R4TDMzl3Ixkjo-44" vertex="1">
          <mxGeometry y="78" width="160" height="26" as="geometry" />
        </mxCell>
        <mxCell id="ND50Zq3C4ARqQljdNVHn-15" value="-date_affectation: Date" style="text;strokeColor=none;fillColor=none;align=left;verticalAlign=top;spacingLeft=4;spacingRight=4;overflow=hidden;rotatable=0;points=[[0,0.5],[1,0.5]];portConstraint=eastwest;" parent="5FLD3c6R4TDMzl3Ixkjo-44" vertex="1">
          <mxGeometry y="104" width="160" height="26" as="geometry" />
        </mxCell>
        <mxCell id="5FLD3c6R4TDMzl3Ixkjo-49" value="" style="line;strokeWidth=1;fillColor=none;align=left;verticalAlign=middle;spacingTop=-1;spacingLeft=3;spacingRight=3;rotatable=0;labelPosition=right;points=[];portConstraint=eastwest;" parent="5FLD3c6R4TDMzl3Ixkjo-44" vertex="1">
          <mxGeometry y="130" width="160" height="8" as="geometry" />
        </mxCell>
        <mxCell id="5FLD3c6R4TDMzl3Ixkjo-50" value="+ajouter(): void" style="text;strokeColor=none;fillColor=none;align=left;verticalAlign=top;spacingLeft=4;spacingRight=4;overflow=hidden;rotatable=0;points=[[0,0.5],[1,0.5]];portConstraint=eastwest;" parent="5FLD3c6R4TDMzl3Ixkjo-44" vertex="1">
          <mxGeometry y="138" width="160" height="26" as="geometry" />
        </mxCell>
        <mxCell id="5FLD3c6R4TDMzl3Ixkjo-51" value="Service" style="swimlane;fontStyle=1;childLayout=stackLayout;horizontal=1;startSize=26;horizontalStack=0;resizeParent=1;resizeParentMax=0;resizeLast=0;collapsible=1;marginBottom=0;" parent="WIyWlLk6GJQsqaUBKTNV-1" vertex="1">
          <mxGeometry x="-870" y="-48" width="160" height="216" as="geometry">
            <mxRectangle x="-870" y="-48" width="80" height="30" as="alternateBounds" />
          </mxGeometry>
        </mxCell>
        <mxCell id="5FLD3c6R4TDMzl3Ixkjo-52" value="-id: int" style="text;strokeColor=none;fillColor=none;align=left;verticalAlign=top;spacingLeft=4;spacingRight=4;overflow=hidden;rotatable=0;points=[[0,0.5],[1,0.5]];portConstraint=eastwest;" parent="5FLD3c6R4TDMzl3Ixkjo-51" vertex="1">
          <mxGeometry y="26" width="160" height="26" as="geometry" />
        </mxCell>
        <mxCell id="5FLD3c6R4TDMzl3Ixkjo-53" value="-nom: string" style="text;strokeColor=none;fillColor=none;align=left;verticalAlign=top;spacingLeft=4;spacingRight=4;overflow=hidden;rotatable=0;points=[[0,0.5],[1,0.5]];portConstraint=eastwest;" parent="5FLD3c6R4TDMzl3Ixkjo-51" vertex="1">
          <mxGeometry y="52" width="160" height="26" as="geometry" />
        </mxCell>
        <mxCell id="5FLD3c6R4TDMzl3Ixkjo-54" value="-description: string" style="text;strokeColor=none;fillColor=none;align=left;verticalAlign=top;spacingLeft=4;spacingRight=4;overflow=hidden;rotatable=0;points=[[0,0.5],[1,0.5]];portConstraint=eastwest;" parent="5FLD3c6R4TDMzl3Ixkjo-51" vertex="1">
          <mxGeometry y="78" width="160" height="26" as="geometry" />
        </mxCell>
        <mxCell id="5FLD3c6R4TDMzl3Ixkjo-271" value="-demande_id: int &#xa;" style="text;strokeColor=none;fillColor=none;align=left;verticalAlign=top;spacingLeft=4;spacingRight=4;overflow=hidden;rotatable=0;points=[[0,0.5],[1,0.5]];portConstraint=eastwest;" parent="5FLD3c6R4TDMzl3Ixkjo-51" vertex="1">
          <mxGeometry y="104" width="160" height="26" as="geometry" />
        </mxCell>
        <mxCell id="5FLD3c6R4TDMzl3Ixkjo-55" value="-type_service_id: int" style="text;strokeColor=none;fillColor=none;align=left;verticalAlign=top;spacingLeft=4;spacingRight=4;overflow=hidden;rotatable=0;points=[[0,0.5],[1,0.5]];portConstraint=eastwest;" parent="5FLD3c6R4TDMzl3Ixkjo-51" vertex="1">
          <mxGeometry y="130" width="160" height="26" as="geometry" />
        </mxCell>
        <mxCell id="5FLD3c6R4TDMzl3Ixkjo-56" value="" style="line;strokeWidth=1;fillColor=none;align=left;verticalAlign=middle;spacingTop=-1;spacingLeft=3;spacingRight=3;rotatable=0;labelPosition=right;points=[];portConstraint=eastwest;" parent="5FLD3c6R4TDMzl3Ixkjo-51" vertex="1">
          <mxGeometry y="156" width="160" height="8" as="geometry" />
        </mxCell>
        <mxCell id="5FLD3c6R4TDMzl3Ixkjo-57" value="+ajouter(): void" style="text;strokeColor=none;fillColor=none;align=left;verticalAlign=top;spacingLeft=4;spacingRight=4;overflow=hidden;rotatable=0;points=[[0,0.5],[1,0.5]];portConstraint=eastwest;" parent="5FLD3c6R4TDMzl3Ixkjo-51" vertex="1">
          <mxGeometry y="164" width="160" height="26" as="geometry" />
        </mxCell>
        <mxCell id="5FLD3c6R4TDMzl3Ixkjo-58" value="+modifier(): void" style="text;strokeColor=none;fillColor=none;align=left;verticalAlign=top;spacingLeft=4;spacingRight=4;overflow=hidden;rotatable=0;points=[[0,0.5],[1,0.5]];portConstraint=eastwest;" parent="5FLD3c6R4TDMzl3Ixkjo-51" vertex="1">
          <mxGeometry y="190" width="160" height="26" as="geometry" />
        </mxCell>
        <mxCell id="5FLD3c6R4TDMzl3Ixkjo-263" style="edgeStyle=orthogonalEdgeStyle;rounded=0;orthogonalLoop=1;jettySize=auto;html=1;entryX=0.5;entryY=0;entryDx=0;entryDy=0;" parent="WIyWlLk6GJQsqaUBKTNV-1" source="5FLD3c6R4TDMzl3Ixkjo-59" target="5FLD3c6R4TDMzl3Ixkjo-51" edge="1">
          <mxGeometry relative="1" as="geometry" />
        </mxCell>
        <mxCell id="5FLD3c6R4TDMzl3Ixkjo-59" value="Document" style="swimlane;fontStyle=1;childLayout=stackLayout;horizontal=1;startSize=26;horizontalStack=0;resizeParent=1;resizeParentMax=0;resizeLast=0;collapsible=1;marginBottom=0;" parent="WIyWlLk6GJQsqaUBKTNV-1" vertex="1">
          <mxGeometry x="-340" y="-230" width="160" height="320" as="geometry" />
        </mxCell>
        <mxCell id="5FLD3c6R4TDMzl3Ixkjo-60" value="-id: int" style="text;strokeColor=none;fillColor=none;align=left;verticalAlign=top;spacingLeft=4;spacingRight=4;overflow=hidden;rotatable=0;points=[[0,0.5],[1,0.5]];portConstraint=eastwest;" parent="5FLD3c6R4TDMzl3Ixkjo-59" vertex="1">
          <mxGeometry y="26" width="160" height="26" as="geometry" />
        </mxCell>
        <mxCell id="5FLD3c6R4TDMzl3Ixkjo-61" value="-nom: string" style="text;strokeColor=none;fillColor=none;align=left;verticalAlign=top;spacingLeft=4;spacingRight=4;overflow=hidden;rotatable=0;points=[[0,0.5],[1,0.5]];portConstraint=eastwest;" parent="5FLD3c6R4TDMzl3Ixkjo-59" vertex="1">
          <mxGeometry y="52" width="160" height="26" as="geometry" />
        </mxCell>
        <mxCell id="5FLD3c6R4TDMzl3Ixkjo-62" value="-chemin: string" style="text;strokeColor=none;fillColor=none;align=left;verticalAlign=top;spacingLeft=4;spacingRight=4;overflow=hidden;rotatable=0;points=[[0,0.5],[1,0.5]];portConstraint=eastwest;" parent="5FLD3c6R4TDMzl3Ixkjo-59" vertex="1">
          <mxGeometry y="78" width="160" height="26" as="geometry" />
        </mxCell>
        <mxCell id="5FLD3c6R4TDMzl3Ixkjo-276" value="-document_id: int &#xa;" style="text;strokeColor=none;fillColor=none;align=left;verticalAlign=top;spacingLeft=4;spacingRight=4;overflow=hidden;rotatable=0;points=[[0,0.5],[1,0.5]];portConstraint=eastwest;" parent="5FLD3c6R4TDMzl3Ixkjo-59" vertex="1">
          <mxGeometry y="104" width="160" height="26" as="geometry" />
        </mxCell>
        <mxCell id="5FLD3c6R4TDMzl3Ixkjo-246" value="-extension: int" style="text;strokeColor=none;fillColor=none;align=left;verticalAlign=top;spacingLeft=4;spacingRight=4;overflow=hidden;rotatable=0;points=[[0,0.5],[1,0.5]];portConstraint=eastwest;" parent="5FLD3c6R4TDMzl3Ixkjo-59" vertex="1">
          <mxGeometry y="130" width="160" height="26" as="geometry" />
        </mxCell>
        <mxCell id="5FLD3c6R4TDMzl3Ixkjo-245" value="-type: Date" style="text;strokeColor=none;fillColor=none;align=left;verticalAlign=top;spacingLeft=4;spacingRight=4;overflow=hidden;rotatable=0;points=[[0,0.5],[1,0.5]];portConstraint=eastwest;" parent="5FLD3c6R4TDMzl3Ixkjo-59" vertex="1">
          <mxGeometry y="156" width="160" height="26" as="geometry" />
        </mxCell>
        <mxCell id="5FLD3c6R4TDMzl3Ixkjo-244" value="-size: string" style="text;strokeColor=none;fillColor=none;align=left;verticalAlign=top;spacingLeft=4;spacingRight=4;overflow=hidden;rotatable=0;points=[[0,0.5],[1,0.5]];portConstraint=eastwest;" parent="5FLD3c6R4TDMzl3Ixkjo-59" vertex="1">
          <mxGeometry y="182" width="160" height="26" as="geometry" />
        </mxCell>
        <mxCell id="5FLD3c6R4TDMzl3Ixkjo-63" value="-service_id: int" style="text;strokeColor=none;fillColor=none;align=left;verticalAlign=top;spacingLeft=4;spacingRight=4;overflow=hidden;rotatable=0;points=[[0,0.5],[1,0.5]];portConstraint=eastwest;" parent="5FLD3c6R4TDMzl3Ixkjo-59" vertex="1">
          <mxGeometry y="208" width="160" height="26" as="geometry" />
        </mxCell>
        <mxCell id="5FLD3c6R4TDMzl3Ixkjo-64" value="-type_document_id: int" style="text;strokeColor=none;fillColor=none;align=left;verticalAlign=top;spacingLeft=4;spacingRight=4;overflow=hidden;rotatable=0;points=[[0,0.5],[1,0.5]];portConstraint=eastwest;" parent="5FLD3c6R4TDMzl3Ixkjo-59" vertex="1">
          <mxGeometry y="234" width="160" height="26" as="geometry" />
        </mxCell>
        <mxCell id="5FLD3c6R4TDMzl3Ixkjo-65" value="" style="line;strokeWidth=1;fillColor=none;align=left;verticalAlign=middle;spacingTop=-1;spacingLeft=3;spacingRight=3;rotatable=0;labelPosition=right;points=[];portConstraint=eastwest;" parent="5FLD3c6R4TDMzl3Ixkjo-59" vertex="1">
          <mxGeometry y="260" width="160" height="8" as="geometry" />
        </mxCell>
        <mxCell id="5FLD3c6R4TDMzl3Ixkjo-66" value="+ajouter(): void" style="text;strokeColor=none;fillColor=none;align=left;verticalAlign=top;spacingLeft=4;spacingRight=4;overflow=hidden;rotatable=0;points=[[0,0.5],[1,0.5]];portConstraint=eastwest;" parent="5FLD3c6R4TDMzl3Ixkjo-59" vertex="1">
          <mxGeometry y="268" width="160" height="26" as="geometry" />
        </mxCell>
        <mxCell id="5FLD3c6R4TDMzl3Ixkjo-67" value="+modifier(): void" style="text;strokeColor=none;fillColor=none;align=left;verticalAlign=top;spacingLeft=4;spacingRight=4;overflow=hidden;rotatable=0;points=[[0,0.5],[1,0.5]];portConstraint=eastwest;" parent="5FLD3c6R4TDMzl3Ixkjo-59" vertex="1">
          <mxGeometry y="294" width="160" height="26" as="geometry" />
        </mxCell>
        <mxCell id="5FLD3c6R4TDMzl3Ixkjo-68" value="Type_demande_ref" style="swimlane;fontStyle=1;childLayout=stackLayout;horizontal=1;startSize=26;horizontalStack=0;resizeParent=1;resizeParentMax=0;resizeLast=0;collapsible=1;marginBottom=0;" parent="WIyWlLk6GJQsqaUBKTNV-1" vertex="1">
          <mxGeometry x="-1210" y="-470" width="160" height="138" as="geometry" />
        </mxCell>
        <mxCell id="5FLD3c6R4TDMzl3Ixkjo-69" value="-id: int" style="text;strokeColor=none;fillColor=none;align=left;verticalAlign=top;spacingLeft=4;spacingRight=4;overflow=hidden;rotatable=0;points=[[0,0.5],[1,0.5]];portConstraint=eastwest;" parent="5FLD3c6R4TDMzl3Ixkjo-68" vertex="1">
          <mxGeometry y="26" width="160" height="26" as="geometry" />
        </mxCell>
        <mxCell id="5FLD3c6R4TDMzl3Ixkjo-70" value="-nom: string" style="text;strokeColor=none;fillColor=none;align=left;verticalAlign=top;spacingLeft=4;spacingRight=4;overflow=hidden;rotatable=0;points=[[0,0.5],[1,0.5]];portConstraint=eastwest;" parent="5FLD3c6R4TDMzl3Ixkjo-68" vertex="1">
          <mxGeometry y="52" width="160" height="26" as="geometry" />
        </mxCell>
        <mxCell id="5FLD3c6R4TDMzl3Ixkjo-71" value="-description: string" style="text;strokeColor=none;fillColor=none;align=left;verticalAlign=top;spacingLeft=4;spacingRight=4;overflow=hidden;rotatable=0;points=[[0,0.5],[1,0.5]];portConstraint=eastwest;" parent="5FLD3c6R4TDMzl3Ixkjo-68" vertex="1">
          <mxGeometry y="78" width="160" height="26" as="geometry" />
        </mxCell>
        <mxCell id="5FLD3c6R4TDMzl3Ixkjo-72" value="" style="line;strokeWidth=1;fillColor=none;align=left;verticalAlign=middle;spacingTop=-1;spacingLeft=3;spacingRight=3;rotatable=0;labelPosition=right;points=[];portConstraint=eastwest;" parent="5FLD3c6R4TDMzl3Ixkjo-68" vertex="1">
          <mxGeometry y="104" width="160" height="8" as="geometry" />
        </mxCell>
        <mxCell id="5FLD3c6R4TDMzl3Ixkjo-73" value="+ajouter(): void" style="text;strokeColor=none;fillColor=none;align=left;verticalAlign=top;spacingLeft=4;spacingRight=4;overflow=hidden;rotatable=0;points=[[0,0.5],[1,0.5]];portConstraint=eastwest;" parent="5FLD3c6R4TDMzl3Ixkjo-68" vertex="1">
          <mxGeometry y="112" width="160" height="26" as="geometry" />
        </mxCell>
        <mxCell id="5FLD3c6R4TDMzl3Ixkjo-74" value="Type_paiement_ref" style="swimlane;fontStyle=1;childLayout=stackLayout;horizontal=1;startSize=26;horizontalStack=0;resizeParent=1;resizeParentMax=0;resizeLast=0;collapsible=1;marginBottom=0;" parent="WIyWlLk6GJQsqaUBKTNV-1" vertex="1">
          <mxGeometry x="-680" y="-500" width="160" height="138" as="geometry" />
        </mxCell>
        <mxCell id="5FLD3c6R4TDMzl3Ixkjo-75" value="-id: int" style="text;strokeColor=none;fillColor=none;align=left;verticalAlign=top;spacingLeft=4;spacingRight=4;overflow=hidden;rotatable=0;points=[[0,0.5],[1,0.5]];portConstraint=eastwest;" parent="5FLD3c6R4TDMzl3Ixkjo-74" vertex="1">
          <mxGeometry y="26" width="160" height="26" as="geometry" />
        </mxCell>
        <mxCell id="5FLD3c6R4TDMzl3Ixkjo-76" value="-nom: string" style="text;strokeColor=none;fillColor=none;align=left;verticalAlign=top;spacingLeft=4;spacingRight=4;overflow=hidden;rotatable=0;points=[[0,0.5],[1,0.5]];portConstraint=eastwest;" parent="5FLD3c6R4TDMzl3Ixkjo-74" vertex="1">
          <mxGeometry y="52" width="160" height="26" as="geometry" />
        </mxCell>
        <mxCell id="5FLD3c6R4TDMzl3Ixkjo-77" value="-description: string" style="text;strokeColor=none;fillColor=none;align=left;verticalAlign=top;spacingLeft=4;spacingRight=4;overflow=hidden;rotatable=0;points=[[0,0.5],[1,0.5]];portConstraint=eastwest;" parent="5FLD3c6R4TDMzl3Ixkjo-74" vertex="1">
          <mxGeometry y="78" width="160" height="26" as="geometry" />
        </mxCell>
        <mxCell id="5FLD3c6R4TDMzl3Ixkjo-78" value="" style="line;strokeWidth=1;fillColor=none;align=left;verticalAlign=middle;spacingTop=-1;spacingLeft=3;spacingRight=3;rotatable=0;labelPosition=right;points=[];portConstraint=eastwest;" parent="5FLD3c6R4TDMzl3Ixkjo-74" vertex="1">
          <mxGeometry y="104" width="160" height="8" as="geometry" />
        </mxCell>
        <mxCell id="5FLD3c6R4TDMzl3Ixkjo-79" value="+ajouter(): void" style="text;strokeColor=none;fillColor=none;align=left;verticalAlign=top;spacingLeft=4;spacingRight=4;overflow=hidden;rotatable=0;points=[[0,0.5],[1,0.5]];portConstraint=eastwest;" parent="5FLD3c6R4TDMzl3Ixkjo-74" vertex="1">
          <mxGeometry y="112" width="160" height="26" as="geometry" />
        </mxCell>
        <mxCell id="5FLD3c6R4TDMzl3Ixkjo-80" value="Type_service_ref" style="swimlane;fontStyle=1;childLayout=stackLayout;horizontal=1;startSize=26;horizontalStack=0;resizeParent=1;resizeParentMax=0;resizeLast=0;collapsible=1;marginBottom=0;" parent="WIyWlLk6GJQsqaUBKTNV-1" vertex="1">
          <mxGeometry x="-960" y="250" width="160" height="138" as="geometry" />
        </mxCell>
        <mxCell id="5FLD3c6R4TDMzl3Ixkjo-81" value="-id: int" style="text;strokeColor=none;fillColor=none;align=left;verticalAlign=top;spacingLeft=4;spacingRight=4;overflow=hidden;rotatable=0;points=[[0,0.5],[1,0.5]];portConstraint=eastwest;" parent="5FLD3c6R4TDMzl3Ixkjo-80" vertex="1">
          <mxGeometry y="26" width="160" height="26" as="geometry" />
        </mxCell>
        <mxCell id="5FLD3c6R4TDMzl3Ixkjo-82" value="-nom: string" style="text;strokeColor=none;fillColor=none;align=left;verticalAlign=top;spacingLeft=4;spacingRight=4;overflow=hidden;rotatable=0;points=[[0,0.5],[1,0.5]];portConstraint=eastwest;" parent="5FLD3c6R4TDMzl3Ixkjo-80" vertex="1">
          <mxGeometry y="52" width="160" height="26" as="geometry" />
        </mxCell>
        <mxCell id="5FLD3c6R4TDMzl3Ixkjo-83" value="-description: string" style="text;strokeColor=none;fillColor=none;align=left;verticalAlign=top;spacingLeft=4;spacingRight=4;overflow=hidden;rotatable=0;points=[[0,0.5],[1,0.5]];portConstraint=eastwest;" parent="5FLD3c6R4TDMzl3Ixkjo-80" vertex="1">
          <mxGeometry y="78" width="160" height="26" as="geometry" />
        </mxCell>
        <mxCell id="5FLD3c6R4TDMzl3Ixkjo-84" value="" style="line;strokeWidth=1;fillColor=none;align=left;verticalAlign=middle;spacingTop=-1;spacingLeft=3;spacingRight=3;rotatable=0;labelPosition=right;points=[];portConstraint=eastwest;" parent="5FLD3c6R4TDMzl3Ixkjo-80" vertex="1">
          <mxGeometry y="104" width="160" height="8" as="geometry" />
        </mxCell>
        <mxCell id="5FLD3c6R4TDMzl3Ixkjo-85" value="+ajouter(): void" style="text;strokeColor=none;fillColor=none;align=left;verticalAlign=top;spacingLeft=4;spacingRight=4;overflow=hidden;rotatable=0;points=[[0,0.5],[1,0.5]];portConstraint=eastwest;" parent="5FLD3c6R4TDMzl3Ixkjo-80" vertex="1">
          <mxGeometry y="112" width="160" height="26" as="geometry" />
        </mxCell>
        <mxCell id="5FLD3c6R4TDMzl3Ixkjo-86" value="Type_document_ref" style="swimlane;fontStyle=1;childLayout=stackLayout;horizontal=1;startSize=26;horizontalStack=0;resizeParent=1;resizeParentMax=0;resizeLast=0;collapsible=1;marginBottom=0;" parent="WIyWlLk6GJQsqaUBKTNV-1" vertex="1">
          <mxGeometry x="-540" y="260" width="160" height="138" as="geometry" />
        </mxCell>
        <mxCell id="5FLD3c6R4TDMzl3Ixkjo-87" value="-id: int" style="text;strokeColor=none;fillColor=none;align=left;verticalAlign=top;spacingLeft=4;spacingRight=4;overflow=hidden;rotatable=0;points=[[0,0.5],[1,0.5]];portConstraint=eastwest;" parent="5FLD3c6R4TDMzl3Ixkjo-86" vertex="1">
          <mxGeometry y="26" width="160" height="26" as="geometry" />
        </mxCell>
        <mxCell id="5FLD3c6R4TDMzl3Ixkjo-88" value="-nom: string" style="text;strokeColor=none;fillColor=none;align=left;verticalAlign=top;spacingLeft=4;spacingRight=4;overflow=hidden;rotatable=0;points=[[0,0.5],[1,0.5]];portConstraint=eastwest;" parent="5FLD3c6R4TDMzl3Ixkjo-86" vertex="1">
          <mxGeometry y="52" width="160" height="26" as="geometry" />
        </mxCell>
        <mxCell id="5FLD3c6R4TDMzl3Ixkjo-89" value="-description: string" style="text;strokeColor=none;fillColor=none;align=left;verticalAlign=top;spacingLeft=4;spacingRight=4;overflow=hidden;rotatable=0;points=[[0,0.5],[1,0.5]];portConstraint=eastwest;" parent="5FLD3c6R4TDMzl3Ixkjo-86" vertex="1">
          <mxGeometry y="78" width="160" height="26" as="geometry" />
        </mxCell>
        <mxCell id="5FLD3c6R4TDMzl3Ixkjo-90" value="" style="line;strokeWidth=1;fillColor=none;align=left;verticalAlign=middle;spacingTop=-1;spacingLeft=3;spacingRight=3;rotatable=0;labelPosition=right;points=[];portConstraint=eastwest;" parent="5FLD3c6R4TDMzl3Ixkjo-86" vertex="1">
          <mxGeometry y="104" width="160" height="8" as="geometry" />
        </mxCell>
        <mxCell id="5FLD3c6R4TDMzl3Ixkjo-91" value="+ajouter(): void" style="text;strokeColor=none;fillColor=none;align=left;verticalAlign=top;spacingLeft=4;spacingRight=4;overflow=hidden;rotatable=0;points=[[0,0.5],[1,0.5]];portConstraint=eastwest;" parent="5FLD3c6R4TDMzl3Ixkjo-86" vertex="1">
          <mxGeometry y="112" width="160" height="26" as="geometry" />
        </mxCell>
        <mxCell id="5FLD3c6R4TDMzl3Ixkjo-92" value="Rule_validation_ref" style="swimlane;fontStyle=1;childLayout=stackLayout;horizontal=1;startSize=26;horizontalStack=0;resizeParent=1;resizeParentMax=0;resizeLast=0;collapsible=1;marginBottom=0;" parent="WIyWlLk6GJQsqaUBKTNV-1" vertex="1">
          <mxGeometry x="-340" y="260" width="160" height="138" as="geometry" />
        </mxCell>
        <mxCell id="5FLD3c6R4TDMzl3Ixkjo-93" value="-id: int" style="text;strokeColor=none;fillColor=none;align=left;verticalAlign=top;spacingLeft=4;spacingRight=4;overflow=hidden;rotatable=0;points=[[0,0.5],[1,0.5]];portConstraint=eastwest;" parent="5FLD3c6R4TDMzl3Ixkjo-92" vertex="1">
          <mxGeometry y="26" width="160" height="26" as="geometry" />
        </mxCell>
        <mxCell id="5FLD3c6R4TDMzl3Ixkjo-94" value="-nom: string" style="text;strokeColor=none;fillColor=none;align=left;verticalAlign=top;spacingLeft=4;spacingRight=4;overflow=hidden;rotatable=0;points=[[0,0.5],[1,0.5]];portConstraint=eastwest;" parent="5FLD3c6R4TDMzl3Ixkjo-92" vertex="1">
          <mxGeometry y="52" width="160" height="26" as="geometry" />
        </mxCell>
        <mxCell id="5FLD3c6R4TDMzl3Ixkjo-95" value="-description: string" style="text;strokeColor=none;fillColor=none;align=left;verticalAlign=top;spacingLeft=4;spacingRight=4;overflow=hidden;rotatable=0;points=[[0,0.5],[1,0.5]];portConstraint=eastwest;" parent="5FLD3c6R4TDMzl3Ixkjo-92" vertex="1">
          <mxGeometry y="78" width="160" height="26" as="geometry" />
        </mxCell>
        <mxCell id="5FLD3c6R4TDMzl3Ixkjo-96" value="" style="line;strokeWidth=1;fillColor=none;align=left;verticalAlign=middle;spacingTop=-1;spacingLeft=3;spacingRight=3;rotatable=0;labelPosition=right;points=[];portConstraint=eastwest;" parent="5FLD3c6R4TDMzl3Ixkjo-92" vertex="1">
          <mxGeometry y="104" width="160" height="8" as="geometry" />
        </mxCell>
        <mxCell id="5FLD3c6R4TDMzl3Ixkjo-97" value="+ajouter(): void" style="text;strokeColor=none;fillColor=none;align=left;verticalAlign=top;spacingLeft=4;spacingRight=4;overflow=hidden;rotatable=0;points=[[0,0.5],[1,0.5]];portConstraint=eastwest;" parent="5FLD3c6R4TDMzl3Ixkjo-92" vertex="1">
          <mxGeometry y="112" width="160" height="26" as="geometry" />
        </mxCell>
        <mxCell id="5FLD3c6R4TDMzl3Ixkjo-98" value="Service_rule_validation" style="swimlane;fontStyle=1;childLayout=stackLayout;horizontal=1;startSize=26;horizontalStack=0;resizeParent=1;resizeParentMax=0;resizeLast=0;collapsible=1;marginBottom=0;" parent="WIyWlLk6GJQsqaUBKTNV-1" vertex="1">
          <mxGeometry x="-760" y="250" width="170" height="138" as="geometry" />
        </mxCell>
        <mxCell id="5FLD3c6R4TDMzl3Ixkjo-99" value="-id: int" style="text;strokeColor=none;fillColor=none;align=left;verticalAlign=top;spacingLeft=4;spacingRight=4;overflow=hidden;rotatable=0;points=[[0,0.5],[1,0.5]];portConstraint=eastwest;" parent="5FLD3c6R4TDMzl3Ixkjo-98" vertex="1">
          <mxGeometry y="26" width="170" height="26" as="geometry" />
        </mxCell>
        <mxCell id="5FLD3c6R4TDMzl3Ixkjo-100" value="-service_id: int" style="text;strokeColor=none;fillColor=none;align=left;verticalAlign=top;spacingLeft=4;spacingRight=4;overflow=hidden;rotatable=0;points=[[0,0.5],[1,0.5]];portConstraint=eastwest;" parent="5FLD3c6R4TDMzl3Ixkjo-98" vertex="1">
          <mxGeometry y="52" width="170" height="26" as="geometry" />
        </mxCell>
        <mxCell id="5FLD3c6R4TDMzl3Ixkjo-101" value="-rule_validation_id: int" style="text;strokeColor=none;fillColor=none;align=left;verticalAlign=top;spacingLeft=4;spacingRight=4;overflow=hidden;rotatable=0;points=[[0,0.5],[1,0.5]];portConstraint=eastwest;" parent="5FLD3c6R4TDMzl3Ixkjo-98" vertex="1">
          <mxGeometry y="78" width="170" height="26" as="geometry" />
        </mxCell>
        <mxCell id="5FLD3c6R4TDMzl3Ixkjo-102" value="" style="line;strokeWidth=1;fillColor=none;align=left;verticalAlign=middle;spacingTop=-1;spacingLeft=3;spacingRight=3;rotatable=0;labelPosition=right;points=[];portConstraint=eastwest;" parent="5FLD3c6R4TDMzl3Ixkjo-98" vertex="1">
          <mxGeometry y="104" width="170" height="8" as="geometry" />
        </mxCell>
        <mxCell id="5FLD3c6R4TDMzl3Ixkjo-103" value="+ajouter(): void" style="text;strokeColor=none;fillColor=none;align=left;verticalAlign=top;spacingLeft=4;spacingRight=4;overflow=hidden;rotatable=0;points=[[0,0.5],[1,0.5]];portConstraint=eastwest;" parent="5FLD3c6R4TDMzl3Ixkjo-98" vertex="1">
          <mxGeometry y="112" width="170" height="26" as="geometry" />
        </mxCell>
        <mxCell id="5FLD3c6R4TDMzl3Ixkjo-104" value="Service_Type_document" style="swimlane;fontStyle=1;childLayout=stackLayout;horizontal=1;startSize=26;horizontalStack=0;resizeParent=1;resizeParentMax=0;resizeLast=0;collapsible=1;marginBottom=0;" parent="WIyWlLk6GJQsqaUBKTNV-1" vertex="1">
          <mxGeometry x="-620" y="6" width="180" height="138" as="geometry" />
        </mxCell>
        <mxCell id="5FLD3c6R4TDMzl3Ixkjo-105" value="-id: int" style="text;strokeColor=none;fillColor=none;align=left;verticalAlign=top;spacingLeft=4;spacingRight=4;overflow=hidden;rotatable=0;points=[[0,0.5],[1,0.5]];portConstraint=eastwest;" parent="5FLD3c6R4TDMzl3Ixkjo-104" vertex="1">
          <mxGeometry y="26" width="180" height="26" as="geometry" />
        </mxCell>
        <mxCell id="5FLD3c6R4TDMzl3Ixkjo-106" value="-service_id: int" style="text;strokeColor=none;fillColor=none;align=left;verticalAlign=top;spacingLeft=4;spacingRight=4;overflow=hidden;rotatable=0;points=[[0,0.5],[1,0.5]];portConstraint=eastwest;" parent="5FLD3c6R4TDMzl3Ixkjo-104" vertex="1">
          <mxGeometry y="52" width="180" height="26" as="geometry" />
        </mxCell>
        <mxCell id="5FLD3c6R4TDMzl3Ixkjo-107" value="-type_document_id: int" style="text;strokeColor=none;fillColor=none;align=left;verticalAlign=top;spacingLeft=4;spacingRight=4;overflow=hidden;rotatable=0;points=[[0,0.5],[1,0.5]];portConstraint=eastwest;" parent="5FLD3c6R4TDMzl3Ixkjo-104" vertex="1">
          <mxGeometry y="78" width="180" height="26" as="geometry" />
        </mxCell>
        <mxCell id="5FLD3c6R4TDMzl3Ixkjo-108" value="" style="line;strokeWidth=1;fillColor=none;align=left;verticalAlign=middle;spacingTop=-1;spacingLeft=3;spacingRight=3;rotatable=0;labelPosition=right;points=[];portConstraint=eastwest;" parent="5FLD3c6R4TDMzl3Ixkjo-104" vertex="1">
          <mxGeometry y="104" width="180" height="8" as="geometry" />
        </mxCell>
        <mxCell id="5FLD3c6R4TDMzl3Ixkjo-109" value="+ajouter(): void" style="text;strokeColor=none;fillColor=none;align=left;verticalAlign=top;spacingLeft=4;spacingRight=4;overflow=hidden;rotatable=0;points=[[0,0.5],[1,0.5]];portConstraint=eastwest;" parent="5FLD3c6R4TDMzl3Ixkjo-104" vertex="1">
          <mxGeometry y="112" width="180" height="26" as="geometry" />
        </mxCell>
        <mxCell id="5FLD3c6R4TDMzl3Ixkjo-237" value="new tables" style="ellipse;whiteSpace=wrap;html=1;" parent="WIyWlLk6GJQsqaUBKTNV-1" vertex="1">
          <mxGeometry x="-2010" y="-142" width="120" height="80" as="geometry" />
        </mxCell>
        <mxCell id="5FLD3c6R4TDMzl3Ixkjo-238" value="old tables" style="ellipse;whiteSpace=wrap;html=1;" parent="WIyWlLk6GJQsqaUBKTNV-1" vertex="1">
          <mxGeometry x="-1890" y="986" width="120" height="80" as="geometry" />
        </mxCell>
        <mxCell id="5FLD3c6R4TDMzl3Ixkjo-249" style="edgeStyle=orthogonalEdgeStyle;rounded=0;orthogonalLoop=1;jettySize=auto;html=1;entryX=0.457;entryY=-0.062;entryDx=0;entryDy=0;entryPerimeter=0;" parent="WIyWlLk6GJQsqaUBKTNV-1" source="5FLD3c6R4TDMzl3Ixkjo-4" target="5FLD3c6R4TDMzl3Ixkjo-44" edge="1">
          <mxGeometry relative="1" as="geometry" />
        </mxCell>
        <mxCell id="5FLD3c6R4TDMzl3Ixkjo-251" style="edgeStyle=orthogonalEdgeStyle;rounded=0;orthogonalLoop=1;jettySize=auto;html=1;entryX=-0.038;entryY=-0.186;entryDx=0;entryDy=0;entryPerimeter=0;" parent="WIyWlLk6GJQsqaUBKTNV-1" source="5FLD3c6R4TDMzl3Ixkjo-9" target="5FLD3c6R4TDMzl3Ixkjo-71" edge="1">
          <mxGeometry relative="1" as="geometry" />
        </mxCell>
        <mxCell id="5FLD3c6R4TDMzl3Ixkjo-253" style="edgeStyle=orthogonalEdgeStyle;rounded=0;orthogonalLoop=1;jettySize=auto;html=1;entryX=0.888;entryY=-0.003;entryDx=0;entryDy=0;entryPerimeter=0;" parent="WIyWlLk6GJQsqaUBKTNV-1" source="5FLD3c6R4TDMzl3Ixkjo-14" target="5FLD3c6R4TDMzl3Ixkjo-28" edge="1">
          <mxGeometry relative="1" as="geometry" />
        </mxCell>
        <mxCell id="5FLD3c6R4TDMzl3Ixkjo-256" style="edgeStyle=orthogonalEdgeStyle;rounded=0;orthogonalLoop=1;jettySize=auto;html=1;entryX=0;entryY=0.5;entryDx=0;entryDy=0;" parent="WIyWlLk6GJQsqaUBKTNV-1" source="5FLD3c6R4TDMzl3Ixkjo-12" target="5FLD3c6R4TDMzl3Ixkjo-22" edge="1">
          <mxGeometry relative="1" as="geometry" />
        </mxCell>
        <mxCell id="5FLD3c6R4TDMzl3Ixkjo-257" style="edgeStyle=orthogonalEdgeStyle;rounded=0;orthogonalLoop=1;jettySize=auto;html=1;entryX=-0.068;entryY=-0.44;entryDx=0;entryDy=0;entryPerimeter=0;" parent="WIyWlLk6GJQsqaUBKTNV-1" source="5FLD3c6R4TDMzl3Ixkjo-23" target="5FLD3c6R4TDMzl3Ixkjo-77" edge="1">
          <mxGeometry relative="1" as="geometry" />
        </mxCell>
        <mxCell id="5FLD3c6R4TDMzl3Ixkjo-258" style="edgeStyle=orthogonalEdgeStyle;rounded=0;orthogonalLoop=1;jettySize=auto;html=1;entryX=1.027;entryY=0.796;entryDx=0;entryDy=0;entryPerimeter=0;" parent="WIyWlLk6GJQsqaUBKTNV-1" source="5FLD3c6R4TDMzl3Ixkjo-28" target="5FLD3c6R4TDMzl3Ixkjo-3" edge="1">
          <mxGeometry relative="1" as="geometry">
            <Array as="points">
              <mxPoint x="-1380" y="210" />
              <mxPoint x="-1380" y="-111" />
            </Array>
          </mxGeometry>
        </mxCell>
        <mxCell id="5FLD3c6R4TDMzl3Ixkjo-260" style="edgeStyle=orthogonalEdgeStyle;rounded=0;orthogonalLoop=1;jettySize=auto;html=1;entryX=0.375;entryY=0;entryDx=0;entryDy=0;entryPerimeter=0;" parent="WIyWlLk6GJQsqaUBKTNV-1" source="5FLD3c6R4TDMzl3Ixkjo-54" target="5FLD3c6R4TDMzl3Ixkjo-80" edge="1">
          <mxGeometry relative="1" as="geometry" />
        </mxCell>
        <mxCell id="5FLD3c6R4TDMzl3Ixkjo-261" style="edgeStyle=orthogonalEdgeStyle;rounded=0;orthogonalLoop=1;jettySize=auto;html=1;exitX=1;exitY=0.5;exitDx=0;exitDy=0;entryX=0.5;entryY=0;entryDx=0;entryDy=0;" parent="WIyWlLk6GJQsqaUBKTNV-1" source="5FLD3c6R4TDMzl3Ixkjo-55" target="5FLD3c6R4TDMzl3Ixkjo-98" edge="1">
          <mxGeometry relative="1" as="geometry" />
        </mxCell>
        <mxCell id="5FLD3c6R4TDMzl3Ixkjo-262" style="edgeStyle=orthogonalEdgeStyle;rounded=0;orthogonalLoop=1;jettySize=auto;html=1;exitX=1;exitY=0.5;exitDx=0;exitDy=0;entryX=0.5;entryY=0;entryDx=0;entryDy=0;" parent="WIyWlLk6GJQsqaUBKTNV-1" source="5FLD3c6R4TDMzl3Ixkjo-52" target="5FLD3c6R4TDMzl3Ixkjo-104" edge="1">
          <mxGeometry relative="1" as="geometry">
            <Array as="points">
              <mxPoint x="-710" />
              <mxPoint x="-665" />
              <mxPoint x="-665" y="-14" />
              <mxPoint x="-530" y="-14" />
            </Array>
          </mxGeometry>
        </mxCell>
        <mxCell id="5FLD3c6R4TDMzl3Ixkjo-264" style="edgeStyle=orthogonalEdgeStyle;rounded=0;orthogonalLoop=1;jettySize=auto;html=1;entryX=0.75;entryY=0;entryDx=0;entryDy=0;" parent="WIyWlLk6GJQsqaUBKTNV-1" source="5FLD3c6R4TDMzl3Ixkjo-63" target="5FLD3c6R4TDMzl3Ixkjo-86" edge="1">
          <mxGeometry relative="1" as="geometry">
            <Array as="points">
              <mxPoint x="-340" y="-35" />
              <mxPoint x="-390" y="-35" />
              <mxPoint x="-390" y="260" />
            </Array>
          </mxGeometry>
        </mxCell>
        <mxCell id="5FLD3c6R4TDMzl3Ixkjo-266" style="edgeStyle=orthogonalEdgeStyle;rounded=0;orthogonalLoop=1;jettySize=auto;html=1;entryX=0.548;entryY=1.33;entryDx=0;entryDy=0;entryPerimeter=0;" parent="WIyWlLk6GJQsqaUBKTNV-1" source="5FLD3c6R4TDMzl3Ixkjo-98" target="5FLD3c6R4TDMzl3Ixkjo-97" edge="1">
          <mxGeometry relative="1" as="geometry">
            <Array as="points">
              <mxPoint x="-675" y="470" />
              <mxPoint x="-252" y="470" />
            </Array>
          </mxGeometry>
        </mxCell>
        <mxCell id="5FLD3c6R4TDMzl3Ixkjo-268" style="edgeStyle=orthogonalEdgeStyle;rounded=0;orthogonalLoop=1;jettySize=auto;html=1;entryX=-0.047;entryY=0.99;entryDx=0;entryDy=0;entryPerimeter=0;" parent="WIyWlLk6GJQsqaUBKTNV-1" source="5FLD3c6R4TDMzl3Ixkjo-86" target="5FLD3c6R4TDMzl3Ixkjo-106" edge="1">
          <mxGeometry relative="1" as="geometry">
            <Array as="points">
              <mxPoint x="-470" y="190" />
              <mxPoint x="-628" y="190" />
            </Array>
          </mxGeometry>
        </mxCell>
        <mxCell id="5FLD3c6R4TDMzl3Ixkjo-273" style="edgeStyle=orthogonalEdgeStyle;rounded=0;orthogonalLoop=1;jettySize=auto;html=1;entryX=0.028;entryY=1.425;entryDx=0;entryDy=0;entryPerimeter=0;" parent="WIyWlLk6GJQsqaUBKTNV-1" source="5FLD3c6R4TDMzl3Ixkjo-14" target="5FLD3c6R4TDMzl3Ixkjo-52" edge="1">
          <mxGeometry relative="1" as="geometry" />
        </mxCell>
        <mxCell id="5FLD3c6R4TDMzl3Ixkjo-274" value="Table: Document_Demande" style="swimlane;fontStyle=1;childLayout=stackLayout;horizontal=1;startSize=26;horizontalStack=0;resizeParent=1;resizeParentMax=0;resizeLast=0;collapsible=1;marginBottom=0;" parent="WIyWlLk6GJQsqaUBKTNV-1" vertex="1">
          <mxGeometry x="-680" y="-260" width="230" height="78" as="geometry" />
        </mxCell>
        <mxCell id="5FLD3c6R4TDMzl3Ixkjo-275" value="-id: int (PK)" style="text;strokeColor=none;fillColor=none;align=left;verticalAlign=top;spacingLeft=4;spacingRight=4;overflow=hidden;rotatable=0;points=[[0,0.5],[1,0.5]];portConstraint=eastwest;" parent="5FLD3c6R4TDMzl3Ixkjo-274" vertex="1">
          <mxGeometry y="26" width="230" height="26" as="geometry" />
        </mxCell>
        <mxCell id="5FLD3c6R4TDMzl3Ixkjo-277" value="-demande_id: int (FK vers Demande)" style="text;strokeColor=none;fillColor=none;align=left;verticalAlign=top;spacingLeft=4;spacingRight=4;overflow=hidden;rotatable=0;points=[[0,0.5],[1,0.5]];portConstraint=eastwest;" parent="5FLD3c6R4TDMzl3Ixkjo-274" vertex="1">
          <mxGeometry y="52" width="230" height="26" as="geometry" />
        </mxCell>
        <mxCell id="C5r7mNzQ_9IvcsUtmvlQ-0" value="Service" style="swimlane;fontStyle=1;childLayout=stackLayout;horizontal=1;startSize=26;horizontalStack=0;resizeParent=1;resizeParentMax=0;resizeLast=0;collapsible=1;marginBottom=0;" parent="WIyWlLk6GJQsqaUBKTNV-1" vertex="1">
          <mxGeometry x="1320" y="-504" width="160" height="104" as="geometry">
            <mxRectangle x="-870" y="-48" width="80" height="30" as="alternateBounds" />
          </mxGeometry>
        </mxCell>
        <mxCell id="C5r7mNzQ_9IvcsUtmvlQ-1" value="-id: int" style="text;strokeColor=none;fillColor=none;align=left;verticalAlign=top;spacingLeft=4;spacingRight=4;overflow=hidden;rotatable=0;points=[[0,0.5],[1,0.5]];portConstraint=eastwest;" parent="C5r7mNzQ_9IvcsUtmvlQ-0" vertex="1">
          <mxGeometry y="26" width="160" height="26" as="geometry" />
        </mxCell>
        <mxCell id="C5r7mNzQ_9IvcsUtmvlQ-28" value="-category_id : int" style="text;strokeColor=none;fillColor=none;align=left;verticalAlign=top;spacingLeft=4;spacingRight=4;overflow=hidden;rotatable=0;points=[[0,0.5],[1,0.5]];portConstraint=eastwest;" parent="C5r7mNzQ_9IvcsUtmvlQ-0" vertex="1">
          <mxGeometry y="52" width="160" height="26" as="geometry" />
        </mxCell>
        <mxCell id="3syCg1S0Q7VNtQ6YmW8K-10" value="-agent_id : id" style="text;strokeColor=none;fillColor=none;align=left;verticalAlign=top;spacingLeft=4;spacingRight=4;overflow=hidden;rotatable=0;points=[[0,0.5],[1,0.5]];portConstraint=eastwest;" parent="C5r7mNzQ_9IvcsUtmvlQ-0" vertex="1">
          <mxGeometry y="78" width="160" height="26" as="geometry" />
        </mxCell>
        <mxCell id="C5r7mNzQ_9IvcsUtmvlQ-11" value="Utilisateur" style="swimlane;fontStyle=1;childLayout=stackLayout;horizontal=1;startSize=26;horizontalStack=0;resizeParent=1;resizeParentMax=0;resizeLast=0;collapsible=1;marginBottom=0;" parent="WIyWlLk6GJQsqaUBKTNV-1" vertex="1">
          <mxGeometry x="1090" y="-340" width="160" height="242" as="geometry" />
        </mxCell>
        <mxCell id="C5r7mNzQ_9IvcsUtmvlQ-12" value="-id: int" style="text;strokeColor=none;fillColor=none;align=left;verticalAlign=top;spacingLeft=4;spacingRight=4;overflow=hidden;rotatable=0;points=[[0,0.5],[1,0.5]];portConstraint=eastwest;" parent="C5r7mNzQ_9IvcsUtmvlQ-11" vertex="1">
          <mxGeometry y="26" width="160" height="26" as="geometry" />
        </mxCell>
        <mxCell id="C5r7mNzQ_9IvcsUtmvlQ-13" value="-nom: string" style="text;strokeColor=none;fillColor=none;align=left;verticalAlign=top;spacingLeft=4;spacingRight=4;overflow=hidden;rotatable=0;points=[[0,0.5],[1,0.5]];portConstraint=eastwest;" parent="C5r7mNzQ_9IvcsUtmvlQ-11" vertex="1">
          <mxGeometry y="52" width="160" height="26" as="geometry" />
        </mxCell>
        <mxCell id="C5r7mNzQ_9IvcsUtmvlQ-14" value="-email: string" style="text;strokeColor=none;fillColor=none;align=left;verticalAlign=top;spacingLeft=4;spacingRight=4;overflow=hidden;rotatable=0;points=[[0,0.5],[1,0.5]];portConstraint=eastwest;" parent="C5r7mNzQ_9IvcsUtmvlQ-11" vertex="1">
          <mxGeometry y="78" width="160" height="26" as="geometry" />
        </mxCell>
        <mxCell id="C5r7mNzQ_9IvcsUtmvlQ-15" value="-mot_de_passe: string" style="text;strokeColor=none;fillColor=none;align=left;verticalAlign=top;spacingLeft=4;spacingRight=4;overflow=hidden;rotatable=0;points=[[0,0.5],[1,0.5]];portConstraint=eastwest;" parent="C5r7mNzQ_9IvcsUtmvlQ-11" vertex="1">
          <mxGeometry y="104" width="160" height="26" as="geometry" />
        </mxCell>
        <mxCell id="C5r7mNzQ_9IvcsUtmvlQ-25" value="-mot_de_passe: string" style="text;strokeColor=none;fillColor=none;align=left;verticalAlign=top;spacingLeft=4;spacingRight=4;overflow=hidden;rotatable=0;points=[[0,0.5],[1,0.5]];portConstraint=eastwest;" parent="C5r7mNzQ_9IvcsUtmvlQ-11" vertex="1">
          <mxGeometry y="130" width="160" height="26" as="geometry" />
        </mxCell>
        <mxCell id="C5r7mNzQ_9IvcsUtmvlQ-16" value="-type: string" style="text;strokeColor=none;fillColor=none;align=left;verticalAlign=top;spacingLeft=4;spacingRight=4;overflow=hidden;rotatable=0;points=[[0,0.5],[1,0.5]];portConstraint=eastwest;" parent="C5r7mNzQ_9IvcsUtmvlQ-11" vertex="1">
          <mxGeometry y="156" width="160" height="26" as="geometry" />
        </mxCell>
        <mxCell id="C5r7mNzQ_9IvcsUtmvlQ-17" value="" style="line;strokeWidth=1;fillColor=none;align=left;verticalAlign=middle;spacingTop=-1;spacingLeft=3;spacingRight=3;rotatable=0;labelPosition=right;points=[];portConstraint=eastwest;" parent="C5r7mNzQ_9IvcsUtmvlQ-11" vertex="1">
          <mxGeometry y="182" width="160" height="8" as="geometry" />
        </mxCell>
        <mxCell id="C5r7mNzQ_9IvcsUtmvlQ-18" value="+inscrire(): void" style="text;strokeColor=none;fillColor=none;align=left;verticalAlign=top;spacingLeft=4;spacingRight=4;overflow=hidden;rotatable=0;points=[[0,0.5],[1,0.5]];portConstraint=eastwest;" parent="C5r7mNzQ_9IvcsUtmvlQ-11" vertex="1">
          <mxGeometry y="190" width="160" height="26" as="geometry" />
        </mxCell>
        <mxCell id="C5r7mNzQ_9IvcsUtmvlQ-19" value="+connecter(): void" style="text;strokeColor=none;fillColor=none;align=left;verticalAlign=top;spacingLeft=4;spacingRight=4;overflow=hidden;rotatable=0;points=[[0,0.5],[1,0.5]];portConstraint=eastwest;" parent="C5r7mNzQ_9IvcsUtmvlQ-11" vertex="1">
          <mxGeometry y="216" width="160" height="26" as="geometry" />
        </mxCell>
        <mxCell id="C5r7mNzQ_9IvcsUtmvlQ-29" value="ref_category_service " style="swimlane;fontStyle=1;childLayout=stackLayout;horizontal=1;startSize=26;horizontalStack=0;resizeParent=1;resizeParentMax=0;resizeLast=0;collapsible=1;marginBottom=0;" parent="WIyWlLk6GJQsqaUBKTNV-1" vertex="1">
          <mxGeometry x="1750" y="-500" width="204" height="104" as="geometry" />
        </mxCell>
        <mxCell id="C5r7mNzQ_9IvcsUtmvlQ-30" value="-id: int" style="text;strokeColor=none;fillColor=none;align=left;verticalAlign=top;spacingLeft=4;spacingRight=4;overflow=hidden;rotatable=0;points=[[0,0.5],[1,0.5]];portConstraint=eastwest;" parent="C5r7mNzQ_9IvcsUtmvlQ-29" vertex="1">
          <mxGeometry y="26" width="204" height="26" as="geometry" />
        </mxCell>
        <mxCell id="C5r7mNzQ_9IvcsUtmvlQ-31" value="-name: string" style="text;strokeColor=none;fillColor=none;align=left;verticalAlign=top;spacingLeft=4;spacingRight=4;overflow=hidden;rotatable=0;points=[[0,0.5],[1,0.5]];portConstraint=eastwest;" parent="C5r7mNzQ_9IvcsUtmvlQ-29" vertex="1">
          <mxGeometry y="52" width="204" height="26" as="geometry" />
        </mxCell>
        <mxCell id="3syCg1S0Q7VNtQ6YmW8K-0" value="" style="endArrow=classic;html=1;rounded=0;entryX=0.437;entryY=-0.002;entryDx=0;entryDy=0;entryPerimeter=0;" parent="C5r7mNzQ_9IvcsUtmvlQ-29" target="C5r7mNzQ_9IvcsUtmvlQ-40" edge="1">
          <mxGeometry width="50" height="50" relative="1" as="geometry">
            <mxPoint x="110" y="104" as="sourcePoint" />
            <mxPoint x="160" y="54" as="targetPoint" />
          </mxGeometry>
        </mxCell>
        <mxCell id="C5r7mNzQ_9IvcsUtmvlQ-39" value="-description: string" style="text;strokeColor=none;fillColor=none;align=left;verticalAlign=top;spacingLeft=4;spacingRight=4;overflow=hidden;rotatable=0;points=[[0,0.5],[1,0.5]];portConstraint=eastwest;" parent="C5r7mNzQ_9IvcsUtmvlQ-29" vertex="1">
          <mxGeometry y="78" width="204" height="26" as="geometry" />
        </mxCell>
        <mxCell id="C5r7mNzQ_9IvcsUtmvlQ-40" value="ref_metadata_categorie" style="swimlane;fontStyle=1;childLayout=stackLayout;horizontal=1;startSize=26;horizontalStack=0;resizeParent=1;resizeParentMax=0;resizeLast=0;collapsible=1;marginBottom=0;" parent="WIyWlLk6GJQsqaUBKTNV-1" vertex="1">
          <mxGeometry x="1844" y="-320" width="204" height="104" as="geometry" />
        </mxCell>
        <mxCell id="C5r7mNzQ_9IvcsUtmvlQ-41" value="-id: int" style="text;strokeColor=none;fillColor=none;align=left;verticalAlign=top;spacingLeft=4;spacingRight=4;overflow=hidden;rotatable=0;points=[[0,0.5],[1,0.5]];portConstraint=eastwest;" parent="C5r7mNzQ_9IvcsUtmvlQ-40" vertex="1">
          <mxGeometry y="26" width="204" height="26" as="geometry" />
        </mxCell>
        <mxCell id="C5r7mNzQ_9IvcsUtmvlQ-42" value="-ref_category_id: int" style="text;strokeColor=none;fillColor=none;align=left;verticalAlign=top;spacingLeft=4;spacingRight=4;overflow=hidden;rotatable=0;points=[[0,0.5],[1,0.5]];portConstraint=eastwest;" parent="C5r7mNzQ_9IvcsUtmvlQ-40" vertex="1">
          <mxGeometry y="52" width="204" height="26" as="geometry" />
        </mxCell>
        <mxCell id="C5r7mNzQ_9IvcsUtmvlQ-43" value="-ref_metadate_id: int" style="text;strokeColor=none;fillColor=none;align=left;verticalAlign=top;spacingLeft=4;spacingRight=4;overflow=hidden;rotatable=0;points=[[0,0.5],[1,0.5]];portConstraint=eastwest;" parent="C5r7mNzQ_9IvcsUtmvlQ-40" vertex="1">
          <mxGeometry y="78" width="204" height="26" as="geometry" />
        </mxCell>
        <mxCell id="C5r7mNzQ_9IvcsUtmvlQ-44" value="ref_metadate" style="swimlane;fontStyle=1;childLayout=stackLayout;horizontal=1;startSize=26;horizontalStack=0;resizeParent=1;resizeParentMax=0;resizeLast=0;collapsible=1;marginBottom=0;" parent="WIyWlLk6GJQsqaUBKTNV-1" vertex="1">
          <mxGeometry x="1640" y="-130" width="204" height="234" as="geometry" />
        </mxCell>
        <mxCell id="C5r7mNzQ_9IvcsUtmvlQ-45" value="-id: int" style="text;strokeColor=none;fillColor=none;align=left;verticalAlign=top;spacingLeft=4;spacingRight=4;overflow=hidden;rotatable=0;points=[[0,0.5],[1,0.5]];portConstraint=eastwest;" parent="C5r7mNzQ_9IvcsUtmvlQ-44" vertex="1">
          <mxGeometry y="26" width="204" height="26" as="geometry" />
        </mxCell>
        <mxCell id="C5r7mNzQ_9IvcsUtmvlQ-46" value="-name: string" style="text;strokeColor=none;fillColor=none;align=left;verticalAlign=top;spacingLeft=4;spacingRight=4;overflow=hidden;rotatable=0;points=[[0,0.5],[1,0.5]];portConstraint=eastwest;" parent="C5r7mNzQ_9IvcsUtmvlQ-44" vertex="1">
          <mxGeometry y="52" width="204" height="26" as="geometry" />
        </mxCell>
        <mxCell id="C5r7mNzQ_9IvcsUtmvlQ-47" value="-description: string" style="text;strokeColor=none;fillColor=none;align=left;verticalAlign=top;spacingLeft=4;spacingRight=4;overflow=hidden;rotatable=0;points=[[0,0.5],[1,0.5]];portConstraint=eastwest;" parent="C5r7mNzQ_9IvcsUtmvlQ-44" vertex="1">
          <mxGeometry y="78" width="204" height="26" as="geometry" />
        </mxCell>
        <mxCell id="3syCg1S0Q7VNtQ6YmW8K-5" value="-default-value: string" style="text;strokeColor=none;fillColor=none;align=left;verticalAlign=top;spacingLeft=4;spacingRight=4;overflow=hidden;rotatable=0;points=[[0,0.5],[1,0.5]];portConstraint=eastwest;" parent="C5r7mNzQ_9IvcsUtmvlQ-44" vertex="1">
          <mxGeometry y="104" width="204" height="26" as="geometry" />
        </mxCell>
        <mxCell id="3syCg1S0Q7VNtQ6YmW8K-6" value="-order: string" style="text;strokeColor=none;fillColor=none;align=left;verticalAlign=top;spacingLeft=4;spacingRight=4;overflow=hidden;rotatable=0;points=[[0,0.5],[1,0.5]];portConstraint=eastwest;" parent="C5r7mNzQ_9IvcsUtmvlQ-44" vertex="1">
          <mxGeometry y="130" width="204" height="26" as="geometry" />
        </mxCell>
        <mxCell id="3syCg1S0Q7VNtQ6YmW8K-7" value="-mandator: string" style="text;strokeColor=none;fillColor=none;align=left;verticalAlign=top;spacingLeft=4;spacingRight=4;overflow=hidden;rotatable=0;points=[[0,0.5],[1,0.5]];portConstraint=eastwest;" parent="C5r7mNzQ_9IvcsUtmvlQ-44" vertex="1">
          <mxGeometry y="156" width="204" height="26" as="geometry" />
        </mxCell>
        <mxCell id="3syCg1S0Q7VNtQ6YmW8K-8" value="-type: string" style="text;strokeColor=none;fillColor=none;align=left;verticalAlign=top;spacingLeft=4;spacingRight=4;overflow=hidden;rotatable=0;points=[[0,0.5],[1,0.5]];portConstraint=eastwest;" parent="C5r7mNzQ_9IvcsUtmvlQ-44" vertex="1">
          <mxGeometry y="182" width="204" height="26" as="geometry" />
        </mxCell>
        <mxCell id="3syCg1S0Q7VNtQ6YmW8K-9" value="-description: string" style="text;strokeColor=none;fillColor=none;align=left;verticalAlign=top;spacingLeft=4;spacingRight=4;overflow=hidden;rotatable=0;points=[[0,0.5],[1,0.5]];portConstraint=eastwest;" parent="C5r7mNzQ_9IvcsUtmvlQ-44" vertex="1">
          <mxGeometry y="208" width="204" height="26" as="geometry" />
        </mxCell>
        <mxCell id="C5r7mNzQ_9IvcsUtmvlQ-58" style="edgeStyle=orthogonalEdgeStyle;rounded=0;orthogonalLoop=1;jettySize=auto;html=1;entryX=1;entryY=0.5;entryDx=0;entryDy=0;" parent="WIyWlLk6GJQsqaUBKTNV-1" source="C5r7mNzQ_9IvcsUtmvlQ-39" target="3syCg1S0Q7VNtQ6YmW8K-10" edge="1">
          <mxGeometry relative="1" as="geometry">
            <mxPoint x="1488.1600000000008" y="-458.52600000000007" as="targetPoint" />
            <Array as="points">
              <mxPoint x="1680" y="-413" />
              <mxPoint x="1680" y="-413" />
            </Array>
          </mxGeometry>
        </mxCell>
        <mxCell id="C5r7mNzQ_9IvcsUtmvlQ-62" style="edgeStyle=orthogonalEdgeStyle;rounded=0;orthogonalLoop=1;jettySize=auto;html=1;entryX=-0.035;entryY=-0.21;entryDx=0;entryDy=0;entryPerimeter=0;" parent="WIyWlLk6GJQsqaUBKTNV-1" source="C5r7mNzQ_9IvcsUtmvlQ-44" target="C5r7mNzQ_9IvcsUtmvlQ-43" edge="1">
          <mxGeometry relative="1" as="geometry" />
        </mxCell>
        <mxCell id="3syCg1S0Q7VNtQ6YmW8K-11" value="service_metadata" style="swimlane;fontStyle=1;childLayout=stackLayout;horizontal=1;startSize=26;horizontalStack=0;resizeParent=1;resizeParentMax=0;resizeLast=0;collapsible=1;marginBottom=0;" parent="WIyWlLk6GJQsqaUBKTNV-1" vertex="1">
          <mxGeometry x="1610" y="-740" width="160" height="130" as="geometry">
            <mxRectangle x="-870" y="-48" width="80" height="30" as="alternateBounds" />
          </mxGeometry>
        </mxCell>
        <mxCell id="3syCg1S0Q7VNtQ6YmW8K-12" value="-id: int" style="text;strokeColor=none;fillColor=none;align=left;verticalAlign=top;spacingLeft=4;spacingRight=4;overflow=hidden;rotatable=0;points=[[0,0.5],[1,0.5]];portConstraint=eastwest;" parent="3syCg1S0Q7VNtQ6YmW8K-11" vertex="1">
          <mxGeometry y="26" width="160" height="26" as="geometry" />
        </mxCell>
        <mxCell id="3syCg1S0Q7VNtQ6YmW8K-13" value="-metadata_id : int" style="text;strokeColor=none;fillColor=none;align=left;verticalAlign=top;spacingLeft=4;spacingRight=4;overflow=hidden;rotatable=0;points=[[0,0.5],[1,0.5]];portConstraint=eastwest;" parent="3syCg1S0Q7VNtQ6YmW8K-11" vertex="1">
          <mxGeometry y="52" width="160" height="26" as="geometry" />
        </mxCell>
        <mxCell id="3syCg1S0Q7VNtQ6YmW8K-14" value="-value : string" style="text;strokeColor=none;fillColor=none;align=left;verticalAlign=top;spacingLeft=4;spacingRight=4;overflow=hidden;rotatable=0;points=[[0,0.5],[1,0.5]];portConstraint=eastwest;" parent="3syCg1S0Q7VNtQ6YmW8K-11" vertex="1">
          <mxGeometry y="78" width="160" height="26" as="geometry" />
        </mxCell>
        <mxCell id="3syCg1S0Q7VNtQ6YmW8K-19" value="-service-id: int" style="text;strokeColor=none;fillColor=none;align=left;verticalAlign=top;spacingLeft=4;spacingRight=4;overflow=hidden;rotatable=0;points=[[0,0.5],[1,0.5]];portConstraint=eastwest;" parent="3syCg1S0Q7VNtQ6YmW8K-11" vertex="1">
          <mxGeometry y="104" width="160" height="26" as="geometry" />
        </mxCell>
        <mxCell id="3syCg1S0Q7VNtQ6YmW8K-18" style="edgeStyle=orthogonalEdgeStyle;rounded=0;orthogonalLoop=1;jettySize=auto;html=1;exitX=0.5;exitY=0;exitDx=0;exitDy=0;entryX=0.02;entryY=0.873;entryDx=0;entryDy=0;entryPerimeter=0;" parent="WIyWlLk6GJQsqaUBKTNV-1" source="C5r7mNzQ_9IvcsUtmvlQ-0" target="3syCg1S0Q7VNtQ6YmW8K-13" edge="1">
          <mxGeometry relative="1" as="geometry" />
        </mxCell>
        <mxCell id="flX7GPJ8oj47HETaMRFj-1" style="edgeStyle=orthogonalEdgeStyle;rounded=0;orthogonalLoop=1;jettySize=auto;html=1;entryX=-0.029;entryY=0.301;entryDx=0;entryDy=0;entryPerimeter=0;" edge="1" parent="WIyWlLk6GJQsqaUBKTNV-1" source="C5r7mNzQ_9IvcsUtmvlQ-15" target="3syCg1S0Q7VNtQ6YmW8K-10">
          <mxGeometry relative="1" as="geometry" />
        </mxCell>
      </root>
    </mxGraphModel>
  </diagram>
</mxfile>
